<?xml version="1.0"?>

<svg version="1.1" id="Calque_1" xmlns="http://www.w3.org/2000/svg" xmlns:xlink="http://www.w3.org/1999/xlink" x="0px" y="0px" viewBox="0 0 396.9 320" style="enable-background:new 0 0 396.9 413.9;" xml:space="preserve">

<g id="Calque_2_00000033361264124950078310000005755413190590563758_">
&#x9;<path fill="#3C312E" d="M17.4,220.8c10.7,0.8,21.5,1,32.2,0.6c0.5-10.7,1.6-21.4,3.2-31.9c2.9,3.2,6,6.2,9,9.2&#xA;&#x9;&#x9;c-0.3-0.9-0.5-1.8-0.8-2.7c-2.4-2.4-4.8-4.9-7.2-7.5l-2-2.1l-0.5,2.9c-1.6,10.2-2.6,20.3-3.2,30.8c-3.2,0.1-6.5,0.2-9.8,0.2&#xA;&#x9;&#x9;c-7,0-13.8-0.2-21-0.8l-3.6-0.3l2.4,2.6c10.2,11.2,21.4,21.6,33.3,31l0.9-1.1C38.6,242.3,27.5,232,17.4,220.8"></path>
&#x9;<path fill="#F1DC43" d="M61.9,198.6c-3.1-3-6.1-6-9-9.2c-1.6,10.6-2.7,21.2-3.2,31.9c-10.8,0.4-21.5,0.2-32.2-0.6&#xA;&#x9;&#x9;c10.2,11.2,21.3,21.5,33.1,30.9L66.5,231l1.1,0.8l0.2,0.2l9.3,0.9C70.6,222.1,65.5,210.6,61.9,198.6"></path>
&#x9;<path fill="#3C312E" d="M353.8,189.6c1.2,10.2,1.9,20.4,2,30.7c11.1,1.1,22.3,1.3,33.4,0.7c-10,11-20.9,21.1-32.5,30.4l0.9,1.1&#xA;&#x9;&#x9;c11.7-9.3,22.6-19.5,32.7-30.5l2.4-2.6l-3.5,0.2c-4.2,0.3-8.4,0.4-12.5,0.4c-6.5,0-13-0.3-19.5-0.9c-0.2-10.1-0.9-19.7-2-29.6&#xA;&#x9;&#x9;l-0.4-3.1l-2.1,2.3c-3.1,3.4-6.3,6.6-9.5,9.7c-0.3,0.9-0.6,1.9-0.9,2.8C346.3,197.4,350.1,193.6,353.8,189.6"></path>
&#x9;<path fill="#F1DC43" d="M389.3,221c-11.2,0.7-22.3,0.4-33.4-0.7c-0.2-10.3-0.8-20.5-2-30.7c-3.7,4-7.5,7.8-11.4,11.5&#xA;&#x9;&#x9;c-3.5,11.1-8.4,21.7-14.4,31.7l11.1-1.1l0.4-0.3l1.1-0.8l16.1,20.8C368.4,242.1,379.3,231.9,389.3,221"></path>
&#x9;<path fill="#3C312E" d="M78,234.3c-0.3-0.5-0.6-1-0.9-1.5l-9.3-0.9c2.7,2,5.5,4,8.3,5.8l-5.2-4.1L78,234.3z"></path>
&#x9;<path fill="#3C312E" d="M70.8,233.6l5.2,4.1c2.5,1.7,5.1,3.4,7.7,5c-2-2.8-3.9-5.6-5.7-8.5L70.8,233.6z"></path>
&#x9;<path fill="#3C312E" d="M327.1,234.2l9.2-0.9l-4.3,3.5c2.4-1.7,4.8-3.4,7.2-5.2l-11.1,1.1C327.7,233.3,327.4,233.7,327.1,234.2"></path>
&#x9;<path fill="#3C312E" d="M327.1,234.2c-2.1,3.5-4.4,6.9-6.9,10.1c4-2.4,7.9-4.9,11.7-7.5l4.3-3.5L327.1,234.2z"></path>
&#x9;<path fill="#3C312E" d="M77,232.8c0.3,0.5,0.6,1,0.9,1.5c1.8,2.9,3.7,5.8,5.7,8.5l1.4,0.8c1.5-0.5,3.1-1.1,4.7-1.5l-0.3-0.4l0,0&#xA;&#x9;&#x9;c-2.9-3.9-5.6-7.9-8-12l0,0c-0.3-0.6-0.6-1.2-1-1.7c-0.9-1.5-1.8-3-2.6-4.6c-0.5-1-1.1-2-1.5-3c-0.6-1.3-1.3-2.5-1.9-3.8&#xA;&#x9;&#x9;c-0.2-0.4-0.4-0.8-0.6-1.3h0.1c-2.4-5.3-4.5-10.7-6.2-16.2l0,0c0-0.1,0-0.1,0-0.2c-0.8-2.6-1.5-5.2-2.2-7.8c-0.1-0.3-0.1-0.6-0.2-1&#xA;&#x9;&#x9;c-0.6-2.3-1.1-4.6-1.5-7c0-0.2-0.1-0.4-0.1-0.6l0,0c-1.3-6.9-2.1-13.8-2.3-20.7l0,0c-0.1-1.6-0.1-3.2-0.1-4.8c0-0.3,0-0.5,0-0.8&#xA;&#x9;&#x9;s0-0.5,0-0.8c0-1.9,0.1-3.9,0.1-5.8c0-1.1,0.1-2.1,0.2-3.1c0.1-0.8,0.1-1.5,0.1-2.3l0,0c0.6-7.5,1.8-15,3.7-22.4l0,0&#xA;&#x9;&#x9;c0,0,0-0.1,0-0.1c0.7-2.7,1.4-5.3,2.2-7.9c0.1-0.4,0.3-0.9,0.4-1.3c0.7-2.1,1.4-4.3,2.2-6.4c0.1-0.1,0.1-0.3,0.2-0.5l0,0&#xA;&#x9;&#x9;c3.1-8.3,7.1-16.3,11.7-23.9c0.9-1.4,1.7-2.8,2.6-4.1l1.1-1.7c0.8-1.2,1.6-2.3,2.5-3.5l1.2-1.6c1-1.3,2-2.6,3-3.8l0,0&#xA;&#x9;&#x9;c5.1-6.4,10.8-12.3,17-17.7l0,0c0.2-0.2,0.4-0.3,0.6-0.5c1.7-1.5,3.4-2.9,5.2-4.3c0.6-0.5,1.2-0.9,1.8-1.4c2-1.5,4-3,6.1-4.4&#xA;&#x9;&#x9;l0.4-0.3l0,0c8-5.4,16.5-9.9,25.4-13.6c1.4-0.6,2.8-1.1,4.2-1.7l1.3-0.5c1.8-0.7,3.7-1.3,5.6-1.9l2.1-0.6c0.6-0.2,1.2-0.4,1.8-0.5&#xA;&#x9;&#x9;l0,0c8.5-2.4,17.2-4,26-4.8l0,0c0.7-0.1,1.4-0.1,2.1-0.1c1.3-0.1,2.5-0.2,3.8-0.3c2-0.1,4.1-0.1,6.1-0.1h0.7h0.4&#xA;&#x9;&#x9;c1.6,0,3.2,0,4.7,0.1l0,0c9.1,0.3,18.1,1.5,26.9,3.6l0,0c0.6,0.1,1.2,0.3,1.8,0.4l2.1,0.5c1.9,0.5,3.7,1,5.5,1.6l1.5,0.5&#xA;&#x9;&#x9;c1.6,0.5,3.3,1.1,4.9,1.7l1,0.4l0.2,0.1l0,0c8.2,3.1,16.2,6.9,23.7,11.4l0,0l0.2,0.1c2.3,1.4,4.6,2.9,6.8,4.4l1.6,1.1&#xA;&#x9;&#x9;c1.8,1.3,3.6,2.6,5.3,3.9c0.2,0.2,0.5,0.4,0.8,0.6l0,0c6.7,5.3,13,11.2,18.6,17.7l0.1,0.1c1.9,2.1,3.6,4.3,5.3,6.5l1.2,1.6&#xA;&#x9;&#x9;c0.6,0.8,1.3,1.7,1.9,2.6c0.6,0.9,1.1,1.6,1.7,2.4c0.6,0.8,1.2,1.7,1.7,2.6l0.5,0.7l0,0c4.1,6.3,7.7,12.9,10.7,19.7l0,0&#xA;&#x9;&#x9;c0.2,0.5,0.4,1,0.6,1.5c0.2,0.5,0.5,1.1,0.7,1.7c0.8,1.9,1.5,3.7,2.2,5.6l0.2,0.6c0.6,1.6,1.1,3.3,1.7,4.9c0.2,0.8,0.5,1.6,0.7,2.4&#xA;&#x9;&#x9;c0.1,0.2,0.2,0.5,0.2,0.7l0,0c2.3,7.7,3.9,15.7,4.8,23.7l0,0c0,0.1,0,0.3,0,0.5c0.2,2,0.4,4.1,0.5,6.2c0.1,0.7,0.1,1.4,0.2,2.1&#xA;&#x9;&#x9;c0.1,2.5,0.2,5.1,0.2,7.7c0,0.1,0,0.1,0,0.2c0,0.4,0,0.8,0,1.2l0,0c-0.1,7.2-0.6,14.3-1.8,21.4l0,0c-0.1,0.7-0.3,1.4-0.4,2&#xA;&#x9;&#x9;c-0.3,1.8-0.7,3.7-1.1,5.5c-0.2,0.9-0.4,1.7-0.6,2.6c-0.4,1.9-0.9,3.8-1.4,5.6c-0.1,0.4-0.2,0.8-0.3,1.2l0,0&#xA;&#x9;&#x9;c-1.8,6.2-4,12.2-6.6,18.1h0.1c-0.2,0.6-0.5,1.1-0.8,1.7c-0.7,1.5-1.4,2.9-2.1,4.4c-0.4,0.9-0.9,1.7-1.3,2.6&#xA;&#x9;&#x9;c-0.8,1.5-1.7,3.1-2.5,4.6c-0.3,0.5-0.6,1.1-0.9,1.6l0,0c-2.6,4.4-5.4,8.7-8.5,12.8l0,0c-0.3,0.5-0.7,0.9-1.1,1.4l-0.3,0.4&#xA;&#x9;&#x9;c1.7,0.6,3.3,1.1,4.9,1.7l1.1-0.7c2.4-3.3,4.7-6.7,6.9-10.1c0.3-0.5,0.6-1,0.9-1.4c6-9.9,10.9-20.6,14.4-31.7&#xA;&#x9;&#x9;c0.3-0.9,0.6-1.9,0.9-2.8c23.3-78-20.8-160.2-98.5-183.6C167-8.8,85.1,35.5,61.8,113.5c-8,26.8-8.3,55.4-0.7,82.4&#xA;&#x9;&#x9;c0.2,0.9,0.5,1.8,0.8,2.7C65.5,210.6,70.6,222.1,77,232.8"></path>
&#x9;<path fill="#3C312E" d="M342.9,140.2c0.2,2,0.4,4.1,0.5,6.2C343.3,144.3,343.1,142.3,342.9,140.2"></path>
&#x9;<path fill="#3C312E" d="M341.7,180.9c-0.3,1.8-0.7,3.7-1.1,5.5C341,184.6,341.3,182.8,341.7,180.9"></path>
&#x9;<path fill="#3C312E" d="M337.1,113c0.2,0.8,0.5,1.6,0.7,2.4C337.6,114.6,337.4,113.8,337.1,113"></path>
&#x9;<path fill="#3C312E" d="M343.6,148.5c0.1,2.5,0.2,5.1,0.2,7.7C343.8,153.6,343.7,151,343.6,148.5"></path>
&#x9;<path fill="#3C312E" d="M318.7,75.6c0.6,0.8,1.2,1.7,1.7,2.6C319.9,77.3,319.3,76.5,318.7,75.6"></path>
&#x9;<path fill="#3C312E" d="M315.1,70.7c0.6,0.8,1.3,1.7,1.9,2.6C316.4,72.4,315.8,71.5,315.1,70.7"></path>
&#x9;<path fill="#3C312E" d="M308.5,62.6c1.9,2.1,3.7,4.3,5.4,6.5C312.2,66.9,310.4,64.7,308.5,62.6"></path>
&#x9;<path fill="#3C312E" d="M332.3,100.2c0.2,0.5,0.5,1.1,0.7,1.7C332.8,101.3,332.5,100.7,332.3,100.2"></path>
&#x9;<path fill="#3C312E" d="M340,189c-0.4,1.9-0.9,3.8-1.4,5.6C339.1,192.8,339.6,190.9,340,189"></path>
&#x9;<path fill="#3C312E" d="M255.6,218.2c-1.3,0-2.5-0.7-3.2-1.8l-17,11h0.4l20.2-9.2L255.6,218.2z"></path>
&#x9;<path fill="#3C312E" d="M253,229.4c2.3,0.3,4.6,0.7,6.9,1c0.1-1.5,0.5-3,1.4-4.3L253,229.4z"></path>
&#x9;<path fill="#3C312E" d="M219.4,167.9c0,0.4,0,0.7,0,1.1c0.4,3.9,0.8,7.7,1.2,11.6l4.7-12.7H219.4z"></path>
&#x9;<path fill="#3C312E" d="M327.9,168.9l-6.5,19.4l20.7-9.5c1.1-7.1,1.7-14.2,1.8-21.4l-16,10.3C328,168.2,328,168.6,327.9,168.9"></path>
&#x9;<path fill="#3C312E" d="M313.8,210.9c1.9,0.8,2.9,3,2.2,4.9c-0.6,1.5-2,2.4-3.5,2.4h-31.1l-10.8,4.3c2.3,0.6,4.3,2.1,5.5,4.3&#xA;&#x9;&#x9;l55.7-12.8c2.6-5.9,4.8-11.9,6.5-18.1l-22.4,8.8L313.8,210.9z"></path>
&#x9;<path fill="#3C312E" d="M234.6,172l-12.1,27.8l0.3,3l14.6-23.8L234.6,172z"></path>
&#x9;<path fill="#3C312E" d="M247.4,204.2l-17.8,17.4l0.1,0.1l19.2-13.9L247.4,204.2z"></path>
&#x9;<polygon fill="#3C312E" points="243.6,194.6 242,190.5 224.2,215.7 &#x9;"></polygon>
&#x9;<g>
&#x9;&#x9;<defs>
&#x9;&#x9;&#x9;<rect id="SVGID_1_" x="-110" y="-256.4" width="1115" height="791.3"></rect>
&#x9;&#x9;</defs>
&#x9;&#x9;<clipPath id="SVGID_00000058571959091750683600000007162163424941026484_">
&#x9;&#x9;&#x9;<use xlink:href="#SVGID_1_" style="overflow:visible;"></use>
&#x9;&#x9;</clipPath>
&#x9;&#x9;<g style="clip-path:url(#SVGID_00000058571959091750683600000007162163424941026484_);">
&#x9;&#x9;&#x9;<path fill="#3C312E" d="M65.2,121.9c0.7-2.7,1.4-5.3,2.2-7.9C66.6,116.6,65.9,119.2,65.2,121.9"></path>
&#x9;&#x9;&#x9;<path fill="#3C312E" d="M110,49c1.7-1.5,3.4-2.9,5.2-4.3C113.4,46.1,111.7,47.6,110,49"></path>
&#x9;&#x9;&#x9;<path fill="#3C312E" d="M61.2,149.7c0.1-1.1,0.1-2.1,0.2-3.1C61.3,147.7,61.2,148.7,61.2,149.7"></path>
&#x9;&#x9;&#x9;<path fill="#3C312E" d="M67.9,112.7c0.7-2.1,1.4-4.3,2.2-6.4C69.3,108.4,68.6,110.5,67.9,112.7"></path>
&#x9;&#x9;&#x9;<path fill="#3C312E" d="M88.2,72.7l1.2-1.6L88.2,72.7"></path>
&#x9;&#x9;&#x9;<path fill="#3C312E" d="M84.7,77.8l1.1-1.7L84.7,77.8"></path>
&#x9;&#x9;&#x9;<path fill="#3C312E" d="M305.3,166.9l37.6-27.2c-0.9-8-2.5-15.9-4.8-23.7l-52.3,50.8H305.3z"></path>
&#x9;&#x9;&#x9;<path fill="#3C312E" d="M65.1,190.3c-0.6-2.3-1.1-4.6-1.5-7C64,185.6,64.6,188,65.1,190.3"></path>
&#x9;&#x9;&#x9;<path fill="#3C312E" d="M67.5,199.1c-0.8-2.6-1.5-5.2-2.2-7.8C66,193.9,66.7,196.5,67.5,199.1"></path>
&#x9;&#x9;&#x9;<path fill="#3C312E" d="M191.8,14.9c1.3-0.1,2.5-0.2,3.8-0.3C194.3,14.7,193.1,14.8,191.8,14.9"></path>
&#x9;&#x9;&#x9;<path fill="#3C312E" d="M243.9,20.7l1.5,0.5L243.9,20.7"></path>
&#x9;&#x9;&#x9;<path fill="#3C312E" d="M250.3,22.8l1,0.4L250.3,22.8"></path>
&#x9;&#x9;&#x9;<path fill="#3C312E" d="M236.2,18.5l2.1,0.5L236.2,18.5"></path>
&#x9;&#x9;&#x9;<path fill="#3C312E" d="M116.9,43.3c2-1.5,4-3,6.1-4.4C120.9,40.3,118.9,41.8,116.9,43.3"></path>
&#x9;&#x9;&#x9;<path fill="#3C312E" d="M275.4,34.8c2.3,1.4,4.6,2.9,6.8,4.4C280,37.7,277.7,36.2,275.4,34.8"></path>
&#x9;&#x9;&#x9;<path fill="#3C312E" d="M153,23.4l1.3-0.5L153,23.4"></path>
&#x9;&#x9;&#x9;<path fill="#3C312E" d="M283.8,40.3c1.8,1.3,3.6,2.6,5.3,3.9C287.4,42.9,285.6,41.6,283.8,40.3"></path>
&#x9;&#x9;&#x9;<path fill="#3C312E" d="M159.9,21l2.1-0.6L159.9,21"></path>
&#x9;&#x9;&#x9;<path fill="#3C312E" d="M335.2,107.4c0.1,0.2,0.1,0.4,0.2,0.6C335.4,107.9,335.3,107.6,335.2,107.4"></path>
&#x9;&#x9;&#x9;<path fill="#3C312E" d="M194.5,201.4c-0.2,0.4-0.3,0.9-0.5,1.3l0.6,3.8L194.5,201.4z"></path>
&#x9;&#x9;</g>
&#x9;</g>
&#x9;<polygon fill="#3C312E" points="247.5,182.8 247.2,183.2 249.3,188.4 254.4,182.8 &#x9;"></polygon>
&#x9;<g>
&#x9;&#x9;<defs>
&#x9;&#x9;&#x9;<rect id="SVGID_00000004543848825272499630000004099911431991309749_" x="-110" y="-256.4" width="1115" height="791.3"></rect>
&#x9;&#x9;</defs>
&#x9;&#x9;<clipPath id="SVGID_00000036214456723791822600000017831611197394729651_">
&#x9;&#x9;&#x9;<use xlink:href="#SVGID_00000004543848825272499630000004099911431991309749_" style="overflow:visible;"></use>
&#x9;&#x9;</clipPath>
&#x9;&#x9;<g style="clip-path:url(#SVGID_00000036214456723791822600000017831611197394729651_);">
&#x9;&#x9;&#x9;<path fill="#3C312E" d="M203.4,202c-0.2-0.8-0.5-1.5-0.7-2.3l-0.2,7.6L203.4,202z"></path>
&#x9;&#x9;</g>
&#x9;</g>
&#x9;<polygon fill="#3C312E" points="290.1,200.3 277.4,200.3 276.5,200.9 276.7,208.7 290,202.7 &#x9;"></polygon>
&#x9;<polygon fill="#3C312E" points="262.2,198.1 273.8,189.7 273.6,182.8 269.5,182.8 260.3,191.7 261.1,198.1 &#x9;"></polygon>
&#x9;<g>
&#x9;&#x9;<defs>
&#x9;&#x9;&#x9;<rect id="SVGID_00000173859113955150240090000002837151489288755381_" x="-110" y="-256.4" width="1115" height="791.3"></rect>
&#x9;&#x9;</defs>
&#x9;&#x9;<clipPath id="SVGID_00000042722682576221191110000008550292050532926870_">
&#x9;&#x9;&#x9;<use xlink:href="#SVGID_00000173859113955150240090000002837151489288755381_" style="overflow:visible;"></use>
&#x9;&#x9;</clipPath>
&#x9;&#x9;<g style="clip-path:url(#SVGID_00000042722682576221191110000008550292050532926870_);">
&#x9;&#x9;&#x9;<path fill="#3C312E" d="M162.3,227.6l-29.2-18.9c-6.5-1.4-12.3-5.1-17.8-9.8c-1.1-1-1.2-1.6-0.7-2.2l-11.2-7.3&#xA;&#x9;&#x9;&#x9;&#x9;c-6.3-0.7-12-4.2-15.4-9.5c-0.2-0.2-0.3-0.5-0.5-0.7L61.2,162c0.3,7,1.1,13.9,2.4,20.7l98.3,45L162.3,227.6"></path>
&#x9;&#x9;</g>
&#x9;</g>
&#x9;<polygon fill="#3C312E" points="258.3,193.6 253.7,198.1 258.8,198.1 &#x9;"></polygon>
&#x9;<g>
&#x9;&#x9;<defs>
&#x9;&#x9;&#x9;<rect id="SVGID_00000038413779606462282020000007819504752930978208_" x="-110" y="-256.4" width="1115" height="791.3"></rect>
&#x9;&#x9;</defs>
&#x9;&#x9;<clipPath id="SVGID_00000009588356783931686690000002073107197484381885_">
&#x9;&#x9;&#x9;<use xlink:href="#SVGID_00000038413779606462282020000007819504752930978208_" style="overflow:visible;"></use>
&#x9;&#x9;</clipPath>
&#x9;&#x9;<g style="clip-path:url(#SVGID_00000009588356783931686690000002073107197484381885_);">
&#x9;&#x9;&#x9;<path fill="#3C312E" d="M171.8,213.8l-8.3-12.1c-0.8,0.4-1.6,0.9-2.4,1.3l10.6,11.4C171.7,214.2,171.7,214,171.8,213.8"></path>
&#x9;&#x9;&#x9;<path fill="#3C312E" d="M75.9,153.5c-5.9-5.8-8.7-12.7-6.4-21.1c0.1-0.4,0.3-0.8,0.5-1.2c0.1-0.2,0.4-0.4,0.9-0.7&#xA;&#x9;&#x9;&#x9;&#x9;c1.7,1.9,3.3,4,5.2,5.8c3,2.9,6.7,5.1,10.6,6.4L65.2,122c-1.8,7.3-3,14.8-3.7,22.3l16.6,12.1C77.5,155.4,76.8,154.4,75.9,153.5"></path>
&#x9;&#x9;&#x9;<path fill="#3C312E" d="M141.2,122.8l-31.8-73.2c-6.1,5.4-11.8,11.3-17,17.7l37,61.1C133.2,126.1,137.1,124.2,141.2,122.8"></path>
&#x9;&#x9;&#x9;<path fill="#3C312E" d="M61,155.5c0,0.3,0,0.5,0,0.8s0,0.5,0,0.8c0-0.3,0-0.5,0-0.8S61,155.8,61,155.5"></path>
&#x9;&#x9;</g>
&#x9;</g>
&#x9;<polygon fill="#3C312E" points="275.9,182.8 276.1,188.1 283.4,182.8 &#x9;"></polygon>
&#x9;<g>
&#x9;&#x9;<defs>
&#x9;&#x9;&#x9;<rect id="SVGID_00000177460612003966449470000002370827868462991744_" x="-110" y="-256.4" width="1115" height="791.3"></rect>
&#x9;&#x9;</defs>
&#x9;&#x9;<clipPath id="SVGID_00000139264111351588953000000009640571238087895446_">
&#x9;&#x9;&#x9;<use xlink:href="#SVGID_00000177460612003966449470000002370827868462991744_" style="overflow:visible;"></use>
&#x9;&#x9;</clipPath>
&#x9;&#x9;<g style="clip-path:url(#SVGID_00000139264111351588953000000009640571238087895446_);">
&#x9;&#x9;&#x9;<path fill="#3C312E" d="M125.5,185.6c-1.7,0.6-3.4,1.2-5.1,1.7l2.7,2C124,188.1,124.8,186.8,125.5,185.6"></path>
&#x9;&#x9;&#x9;<path fill="#3C312E" d="M152.3,206.7l-0.7,0.3c-0.9,0.3-1.8,0.6-2.7,0.9l18.5,13.5L152.3,206.7z"></path>
&#x9;&#x9;&#x9;<path fill="#3C312E" d="M173.1,196.1l-0.7-1.7c-0.6,0.7-1.1,1.3-1.7,1.9l2.3,3.7C173,198.7,173,197.4,173.1,196.1"></path>
&#x9;&#x9;&#x9;<path fill="#3C312E" d="M110.5,140.1c2.6-1.2,5.1-2.6,7.5-4.2L81.4,82.9c0.2-0.3,0.4-0.6,0.6-1c-4.6,7.6-8.6,15.6-11.7,23.9&#xA;&#x9;&#x9;&#x9;&#x9;l34.3,36.7C106.6,141.8,108.6,141,110.5,140.1"></path>
&#x9;&#x9;</g>
&#x9;</g>
&#x9;<polygon fill="#3C312E" points="308.2,180.5 308.4,180.5 308.4,180.3 &#x9;"></polygon>
&#x9;<polygon fill="#3C312E" points="256.5,180.5 256.7,180.3 255.7,171.2 249.1,180.5 &#x9;"></polygon>
&#x9;<polygon fill="#3C312E" points="292.4,200.3 292.4,201.6 295.1,200.3 &#x9;"></polygon>
&#x9;<polygon fill="#3C312E" points="300.7,210.6 304.9,210.6 305.2,208.9 &#x9;"></polygon>
&#x9;<polygon fill="#3C312E" points="292.5,198.1 300.1,198.1 306.8,195 308.2,182.8 304.7,182.8 292.7,190.5 &#x9;"></polygon>
&#x9;<polygon fill="#3C312E" points="310.7,180.5 320.8,180.5 324.3,170.1 310.9,178.7 &#x9;"></polygon>
&#x9;<polygon fill="#3C312E" points="307.2,210.6 310.7,210.6 312.2,206.1 307.5,207.9 &#x9;"></polygon>
&#x9;<polygon fill="#3C312E" points="259,200.3 254.1,200.3 255.2,203.1 259,200.4 &#x9;"></polygon>
&#x9;<polygon fill="#3C312E" points="258.8,178 266.2,170 257.8,170 &#x9;"></polygon>
&#x9;<polygon fill="#3C312E" points="310.4,182.8 309.2,193.9 317.6,190.1 320,182.8 &#x9;"></polygon>
&#x9;<polygon fill="#3C312E" points="290.2,198.1 290.4,192 280.9,198.1 &#x9;"></polygon>
&#x9;<polygon fill="#3C312E" points="275.8,180.5 286.5,180.5 290.9,177.3 291.1,170 282.6,170 275.7,176.7 &#x9;"></polygon>
&#x9;<polygon fill="#3C312E" points="301.1,170 293.4,170 293.2,175.7 &#x9;"></polygon>
&#x9;<polygon fill="#3C312E" points="273.5,180.5 273.5,178.9 271.8,180.5 &#x9;"></polygon>
&#x9;<polygon fill="#3C312E" points="274.3,202.3 262.4,210 262.5,210.6 272.6,210.6 274.5,209.8 &#x9;"></polygon>
&#x9;<g>
&#x9;&#x9;<defs>
&#x9;&#x9;&#x9;<rect id="SVGID_00000180337297283342409030000002290647773539035022_" x="-110" y="-256.4" width="1115" height="791.3"></rect>
&#x9;&#x9;</defs>
&#x9;&#x9;<clipPath id="SVGID_00000017500783234092345000000016304075457063040951_">
&#x9;&#x9;&#x9;<use xlink:href="#SVGID_00000180337297283342409030000002290647773539035022_" style="overflow:visible;"></use>
&#x9;&#x9;</clipPath>
&#x9;&#x9;<g style="clip-path:url(#SVGID_00000017500783234092345000000016304075457063040951_);">
&#x9;&#x9;&#x9;<path fill="#3C312E" d="M239,162.7l1.7,4.3h4l63.8-104.4c-5.7-6.4-11.9-12.4-18.6-17.7l-51.1,117.5&#xA;&#x9;&#x9;&#x9;&#x9;C238.8,162.6,238.9,162.7,239,162.7"></path>
&#x9;&#x9;&#x9;<path fill="#3C312E" d="M235.6,94.4l-6.7,30.1c3.4,2.2,6.7,4.6,10,7l36.2-96.9c-7.5-4.5-15.4-8.4-23.7-11.4l-14.3,64.2&#xA;&#x9;&#x9;&#x9;&#x9;C237.8,89.9,237.2,92.4,235.6,94.4"></path>
&#x9;&#x9;&#x9;<path fill="#3C312E" d="M227.9,160.4h0.3l1.2-3.2C228.7,158.1,228.1,159.2,227.9,160.4"></path>
&#x9;&#x9;&#x9;<path fill="#3C312E" d="M174,60.5L174,60.5 M170.8,62.2c3.9,0.5,7.1,0.2,10.3-1.6c2.9-1.7,3.7-3.1,0.6-5.2c-0.6-0.5-1.1-1.1-1.5-1.8&#xA;&#x9;&#x9;&#x9;&#x9;l7.9,2.8c0.8-2-1.4-2.5-1.4-4.1c1.3,0.6,2.7,1.3,4,2L189.6,15c-8.8,0.8-17.5,2.4-26,4.8l7.8,47.2c1.8-1.7,2.3-3-0.7-4.9"></path>
&#x9;&#x9;&#x9;<path fill="#3C312E" d="M212.6,54.7c0.1,0.2,0.2,0.5,0.2,0.8c-0.3,1.5-2.3,2.9-1,4.3c1,1.1,2.7-0.3,4.1-0.6c1.4-0.3,2.8-0.6,4.6-1&#xA;&#x9;&#x9;&#x9;&#x9;c-0.7,2.3-3.1,2.4-3.9,4.4c2.6,1.6,5.4,3.2,8,5.2c0.3,0.2,1,0.4,1.5,0.7l8.5-50.4c-8.8-2.1-17.9-3.2-26.9-3.6l-1.1,43.6&#xA;&#x9;&#x9;&#x9;&#x9;C209.2,58.9,210.4,55.4,212.6,54.7"></path>
&#x9;&#x9;&#x9;<path fill="#3C312E" d="M202.8,14.4h-0.4h-0.7H202.8"></path>
&#x9;&#x9;&#x9;<path fill="#3C312E" d="M167.5,119.3l-2.4-10.8c-1.9-3.1-3.3-6.6-4.1-10.1c-0.3-1.5-1.7-1.4-2.6-2c-2.8-1.6-4.3-4.7-3.9-7.8&#xA;&#x9;&#x9;&#x9;&#x9;c0.3-3,2.1-4.6,5.1-4.9L147,25.8l1.9-0.8c-8.9,3.6-17.4,8.2-25.4,13.6l30.3,81.1C158.3,119.1,162.9,119,167.5,119.3"></path>
&#x9;&#x9;</g>
&#x9;</g>
&#x9;<polygon fill="#3C312E" points="242.1,170 242.4,170.8 242.9,170 &#x9;"></polygon>
&#x9;<g>
&#x9;&#x9;<defs>
&#x9;&#x9;&#x9;<rect id="SVGID_00000142858378186888744990000003412201089993343133_" x="-110" y="-256.4" width="1115" height="791.3"></rect>
&#x9;&#x9;</defs>
&#x9;&#x9;<clipPath id="SVGID_00000053527936606170626760000012272634939807656355_">
&#x9;&#x9;&#x9;<use xlink:href="#SVGID_00000142858378186888744990000003412201089993343133_" style="overflow:visible;"></use>
&#x9;&#x9;</clipPath>
&#x9;&#x9;<g style="clip-path:url(#SVGID_00000053527936606170626760000012272634939807656355_);">
&#x9;&#x9;&#x9;<path fill="#3C312E" d="M226.3,144.7c4.1-4.3,4.3-4.5-0.4-7l-2.1,9.7C224.7,146.6,225.5,145.6,226.3,144.7"></path>
&#x9;&#x9;&#x9;<path fill="#3C312E" d="M225.3,71.1c0,0.2,0,0.3,0.1,0.5l0.1-0.6L225.3,71.1"></path>
&#x9;&#x9;&#x9;<path fill="#3C312E" d="M269,166.9l62.7-68.3c-3-6.8-6.6-13.4-10.7-19.7l-62.2,88L269,166.9z"></path>
&#x9;&#x9;&#x9;<path fill="#3C312E" d="M138.6,230.6c2.1-0.3,4.1-0.7,6.2-1l-77.2-30.4c1.7,5.5,3.8,10.9,6.2,16.2L138.6,230.6z"></path>
&#x9;&#x9;&#x9;<path fill="#3C312E" d="M76.3,220.5c-0.6-1.3-1.3-2.5-1.9-3.8C75,218,75.7,219.3,76.3,220.5"></path>
&#x9;&#x9;&#x9;<path fill="#3C312E" d="M80.4,228.1c-0.9-1.5-1.8-3-2.6-4.6C78.7,225.1,79.5,226.6,80.4,228.1"></path>
&#x9;&#x9;&#x9;<path fill="#3C312E" d="M327.5,222.5c-0.8,1.5-1.7,3.1-2.5,4.6C325.9,225.6,326.7,224.1,327.5,222.5"></path>
&#x9;&#x9;&#x9;<path fill="#3C312E" d="M330.9,215.6c-0.7,1.5-1.4,2.9-2.1,4.4C329.5,218.5,330.2,217.1,330.9,215.6"></path>
&#x9;&#x9;&#x9;<path fill="#3C312E" d="M312.4,230.8c0.1,4.7-3.6,8.6-8.3,8.7c-3.7,0.1-7.1-2.3-8.3-5.9l-9.8,1.7c8,1.9,15.7,4,23.2,6.3l6.4-0.2&#xA;&#x9;&#x9;&#x9;&#x9;c3.1-4.1,5.9-8.4,8.5-12.8L312.4,230.8L312.4,230.8"></path>
&#x9;&#x9;&#x9;<path fill="#3C312E" d="M113.6,235.5l-32.2-5.7c2.5,4.1,5.2,8.1,8.1,11.9h1.2C98,239.4,105.7,237.3,113.6,235.5"></path>
&#x9;&#x9;&#x9;<path fill="#3C312E" d="M314.1,243.3l0.3-0.4L314.1,243.3z"></path>
&#x9;&#x9;</g>
&#x9;</g>
&#x9;<polygon fill="#F1DC43" points="290.8,180.5 290.9,177.3 286.5,180.5 &#x9;"></polygon>
&#x9;<polygon fill="#F1DC43" points="256.5,180.5 256.7,180.5 256.7,180.3 &#x9;"></polygon>
&#x9;<polygon fill="#F1DC43" points="324.3,170.1 324.3,170 311.9,170 310.9,178.7 &#x9;"></polygon>
&#x9;<polygon fill="#F1DC43" points="274.1,198.1 273.8,189.7 262.2,198.1 &#x9;"></polygon>
&#x9;<polygon fill="#F1DC43" points="293.1,180.5 308.2,180.5 308.4,180.3 309.6,170 301.1,170 293.2,175.7 &#x9;"></polygon>
&#x9;<polygon fill="#F1DC43" points="280.9,198.1 290.4,192 290.7,182.8 283.4,182.8 276.1,188.1 276.4,198.1 &#x9;"></polygon>
&#x9;<polygon fill="#F1DC43" points="259,180.5 271.8,180.5 273.5,178.9 273.2,170 266.2,170 258.8,178 &#x9;"></polygon>
&#x9;<polygon fill="#F1DC43" points="282.6,170 275.5,170 275.7,176.7 &#x9;"></polygon>
&#x9;<g>
&#x9;&#x9;<defs>
&#x9;&#x9;&#x9;<rect id="SVGID_00000116939335107404388780000001409632906228269221_" x="-110" y="-256.4" width="1115" height="791.3"></rect>
&#x9;&#x9;</defs>
&#x9;&#x9;<clipPath id="SVGID_00000082366651453108520970000006765904179411069883_">
&#x9;&#x9;&#x9;<use xlink:href="#SVGID_00000116939335107404388780000001409632906228269221_" style="overflow:visible;"></use>
&#x9;&#x9;</clipPath>
&#x9;&#x9;<g style="clip-path:url(#SVGID_00000082366651453108520970000006765904179411069883_);">
&#x9;&#x9;&#x9;<path fill="#F1DC43" d="M163.1,227.5c-0.1-2.5,1.5-4.8,3.9-5.6c4-1.4,4.5-4.3,4.7-7.5L161.1,203c-2.8,1.4-5.8,2.7-8.7,3.8l15.1,14.7&#xA;&#x9;&#x9;&#x9;&#x9;l-18.5-13.5c-5.1,1.6-10.5,1.9-15.8,0.7l29.2,18.9L163.1,227.5"></path>
&#x9;&#x9;&#x9;<path fill="#F1DC43" d="M232.9,167.9h-7.6l-4.8,12.7c0.7,6.4,1.3,12.8,1.9,19.2l12.1-27.8L232.9,167.9z"></path>
&#x9;&#x9;&#x9;<path fill="#F1DC43" d="M243.6,194.5l-19.4,21.2l17.8-25.2l-4.6-11.6l-14.6,23.8c0.4,4.3,0.9,8.6,1.2,12.9c0,2.2,1.5,4.1,3.6,4.8&#xA;&#x9;&#x9;&#x9;&#x9;c0.7,0.3,1.3,0.6,2,1l17.8-17.4L243.6,194.5z"></path>
&#x9;&#x9;&#x9;<path fill="#F1DC43" d="M234.2,95.6c-1.8,1.1-3.1,3-3.6,5.1c-1.9,7.2-6.4,12.7-12,17.8c3.5,1.8,7,3.8,10.3,5.9l6.7-30.1&#xA;&#x9;&#x9;&#x9;&#x9;C235.2,94.9,234.7,95.3,234.2,95.6"></path>
&#x9;&#x9;</g>
&#x9;</g>
&#x9;<polygon fill="#F1DC43" points="243.2,173.2 246.1,180.5 249.1,180.5 255.7,171.2 255.5,170 242.9,170 242.4,170.8 &#x9;"></polygon>
&#x9;<g>
&#x9;&#x9;<defs>
&#x9;&#x9;&#x9;<rect id="SVGID_00000012471275189972968770000001849878563994893717_" x="-110" y="-256.4" width="1115" height="791.3"></rect>
&#x9;&#x9;</defs>
&#x9;&#x9;<clipPath id="SVGID_00000098181246277529292460000008528678386011785099_">
&#x9;&#x9;&#x9;<use xlink:href="#SVGID_00000012471275189972968770000001849878563994893717_" style="overflow:visible;"></use>
&#x9;&#x9;</clipPath>
&#x9;&#x9;<g style="clip-path:url(#SVGID_00000098181246277529292460000008528678386011785099_);">
&#x9;&#x9;&#x9;<path fill="#F1DC43" d="M225.5,71l-0.1,0.6c0.1,0.2,0.2,0.4,0.4,0.6c2.5,1.3,3.4,3.1,3.5,6.2c0.1,3,2.1,5.5,5,6.1&#xA;&#x9;&#x9;&#x9;&#x9;c1.4,0.4,2.5,1.6,2.9,3l14.3-64.2l0,0l-0.2-0.1l-1-0.4c-1.6-0.6-3.3-1.2-4.9-1.7l-1.5-0.5c-1.8-0.6-3.7-1.1-5.5-1.6l-2.1-0.5&#xA;&#x9;&#x9;&#x9;&#x9;c-0.6-0.1-1.2-0.3-1.8-0.4l0,0l-8.5,50.4C226.8,69,227.4,69.7,225.5,71"></path>
&#x9;&#x9;&#x9;<path fill="#F1DC43" d="M170.6,119.5c1,0.1,2,0.1,3.1,0.1c0.2,0,0.4-0.2,1.1-0.5c-3.8-3-7-6.6-9.6-10.7l2.4,10.8&#xA;&#x9;&#x9;&#x9;&#x9;C168.6,119.3,169.6,119.4,170.6,119.5"></path>
&#x9;&#x9;&#x9;<path fill="#F1DC43" d="M198.1,57.5c0.6-2.4-0.1-5.1,1.6-7.4c1.4,2.8,2.5,5.5,5.2,7.4c0.5,0.3,1,0.6,1.5,0.7l1.1-43.6l0,0&#xA;&#x9;&#x9;&#x9;&#x9;c-1.6-0.1-3.1-0.1-4.7-0.1h-1.1c-2.1,0-4.1,0.1-6.1,0.2c-1.3,0.1-2.5,0.2-3.8,0.3c-0.7,0.1-1.4,0.1-2.1,0.1l0,0l1.1,39.2&#xA;&#x9;&#x9;&#x9;&#x9;C193,55.6,195.5,56.7,198.1,57.5"></path>
&#x9;&#x9;&#x9;<path fill="#F1DC43" d="M315.9,204.6l22.4-8.8l0,0c0.1-0.4,0.2-0.8,0.3-1.2c0.5-1.9,1-3.7,1.4-5.6c0.2-0.9,0.4-1.7,0.6-2.6&#xA;&#x9;&#x9;&#x9;&#x9;c0.4-1.8,0.7-3.6,1.1-5.5c0.1-0.7,0.3-1.4,0.4-2l0,0l-20.7,9.5L315.9,204.6z"></path>
&#x9;&#x9;&#x9;<path fill="#F1DC43" d="M252.1,215.9l-3.3-8.1l-19.2,13.9c2,1.3,3.5,3,3.5,5.6c0.7,0.1,1.5,0.1,2.2,0.2l17-11&#xA;&#x9;&#x9;&#x9;&#x9;C252.3,216.3,252.2,216.1,252.1,215.9"></path>
&#x9;&#x9;&#x9;<path fill="#F1DC43" d="M326.4,166.9c0.5,0,1,0.2,1.2,0.6c0,0.1,0.1,0.2,0.1,0.3l16-10.3l0,0c0-0.4,0-0.8,0-1.2c0-0.1,0-0.1,0-0.2&#xA;&#x9;&#x9;&#x9;&#x9;c0-2.6-0.1-5.1-0.2-7.7c0-0.7-0.1-1.4-0.2-2.1c-0.1-2.1-0.3-4.1-0.5-6.2c0-0.1,0-0.3,0-0.5l0,0l-37.6,27.2L326.4,166.9z"></path>
&#x9;&#x9;&#x9;<path fill="#F1DC43" d="M258.7,166.9l62.2-88l0,0l-0.5-0.7c-0.6-0.9-1.1-1.7-1.7-2.6c-0.6-0.9-1.1-1.6-1.7-2.4s-1.2-1.7-1.9-2.6&#xA;&#x9;&#x9;&#x9;&#x9;c-0.4-0.5-0.8-1.1-1.2-1.6c-1.7-2.2-3.5-4.4-5.4-6.5l-0.1-0.1l-63.7,104.4H258.7z"></path>
&#x9;&#x9;&#x9;<path fill="#F1DC43" d="M268.5,222.2c0.7,0,1.4,0.1,2.1,0.3l10.8-4.3H256l-20.2,9.2c5.8,0.5,11.6,1.2,17.2,1.9l8.2-3.2&#xA;&#x9;&#x9;&#x9;&#x9;C262.9,223.7,265.6,222.2,268.5,222.2"></path>
&#x9;&#x9;&#x9;<path fill="#F1DC43" d="M240.5,132.7c6,4.6,6.1,10.1,0.2,14.7c-3,2.3-5.9,4.8-8.8,7.2c-0.9,0.7-1.8,1.6-2.5,2.5l-1.2,3.2h7.3&#xA;&#x9;&#x9;&#x9;&#x9;c1.4,0,2.7,0.8,3.3,2l51.1-117.5l0,0c-0.3-0.2-0.5-0.4-0.8-0.6c-1.7-1.4-3.5-2.7-5.3-3.9c-0.5-0.4-1.1-0.8-1.6-1.1&#xA;&#x9;&#x9;&#x9;&#x9;c-2.2-1.5-4.5-3-6.8-4.4l-0.2-0.1l0,0L239,131.4C239.5,131.8,240,132.2,240.5,132.7"></path>
&#x9;&#x9;&#x9;<path fill="#F1DC43" d="M202.5,207.4l0.2-7.6c-0.5-1.5-1-2.9-1.5-4.3c-1-2.7-2.3-1.4-3.4,0c-1.3,1.9-2.4,3.9-3.3,6l0.1,5.1l-0.6-3.8&#xA;&#x9;&#x9;&#x9;&#x9;c-0.7,2-1.3,4-1.7,6c-1.1,5.7-2.3,11.3-0.6,17.2c2.8,0,5.5-0.1,8.3-0.1h4.4c0-0.3,0.1-0.6,0.2-0.9c2-7.9,1-15.5-1.2-22.9&#xA;&#x9;&#x9;&#x9;&#x9;L202.5,207.4z"></path>
&#x9;&#x9;&#x9;<path fill="#F1DC43" d="M217,142.5c0,2.1,0,4.4,0,6.5c0,3.2,1.7,3.1,3.5,1.6c1.1-1,2.2-2.1,3.2-3.2l2.1-9.7l-0.6-0.3&#xA;&#x9;&#x9;&#x9;&#x9;C217,132.8,217,132.8,217,142.5"></path>
&#x9;&#x9;</g>
&#x9;</g>
&#x9;<polygon fill="#F1DC43" points="247,182.8 247.2,183.2 247.5,182.8 &#x9;"></polygon>
&#x9;<g>
&#x9;&#x9;<defs>
&#x9;&#x9;&#x9;<rect id="SVGID_00000124155834663161117410000018199709228664942749_" x="-110" y="-256.4" width="1115" height="791.3"></rect>
&#x9;&#x9;</defs>
&#x9;&#x9;<clipPath id="SVGID_00000183225728899354234320000002316598183337159335_">
&#x9;&#x9;&#x9;<use xlink:href="#SVGID_00000124155834663161117410000018199709228664942749_" style="overflow:visible;"></use>
&#x9;&#x9;</clipPath>
&#x9;&#x9;<g style="clip-path:url(#SVGID_00000183225728899354234320000002316598183337159335_);">
&#x9;&#x9;&#x9;<path fill="#F1DC43" d="M161.8,227.7l-98.3-45l0,0c0,0.2,0.1,0.4,0.1,0.6c0.4,2.4,1,4.7,1.5,7c0.1,0.3,0.1,0.6,0.2,1&#xA;&#x9;&#x9;&#x9;&#x9;c0.7,2.6,1.4,5.2,2.2,7.8c0,0.1,0,0.1,0,0.2l0,0l77.2,30.4C150.4,228.9,156.1,228.2,161.8,227.7"></path>
&#x9;&#x9;&#x9;<path fill="#F1DC43" d="M159.7,83.7h0.1c1.9-0.1,2.1-1.8,2.6-3.1c1.7-5,4.7-9.5,8.7-13l0.5-0.5l-7.8-47.2l0,0&#xA;&#x9;&#x9;&#x9;&#x9;c-0.6,0.2-1.2,0.4-1.8,0.5l-2.1,0.6c-1.9,0.6-3.7,1.2-5.6,1.9c-0.4,0.1-0.9,0.3-1.3,0.5c-1.4,0.5-2.8,1.1-4.2,1.7&#xA;&#x9;&#x9;&#x9;&#x9;c-0.6,0.3-1.2,0.5-1.9,0.8L159.7,83.7z"></path>
&#x9;&#x9;</g>
&#x9;</g>
&#x9;<polygon fill="#F1DC43" points="259.3,182.8 260.3,191.7 269.5,182.8 &#x9;"></polygon>
&#x9;<polygon fill="#F1DC43" points="257,182.8 254.4,182.8 249.3,188.4 253.2,198.1 253.7,198.1 258.3,193.6 &#x9;"></polygon>
&#x9;<g>
&#x9;&#x9;<defs>
&#x9;&#x9;&#x9;<rect id="SVGID_00000096779820218096012350000011760761792418558860_" x="-110" y="-256.4" width="1115" height="791.3"></rect>
&#x9;&#x9;</defs>
&#x9;&#x9;<clipPath id="SVGID_00000168795445945181687160000003377274720427412141_">
&#x9;&#x9;&#x9;<use xlink:href="#SVGID_00000096779820218096012350000011760761792418558860_" style="overflow:visible;"></use>
&#x9;&#x9;</clipPath>
&#x9;&#x9;<g style="clip-path:url(#SVGID_00000168795445945181687160000003377274720427412141_);">
&#x9;&#x9;&#x9;<path fill="#F1DC43" d="M171.8,213.6c0.4-4.5,0.8-9,1.1-13.6l-2.3-3.7c-2.2,2.1-4.6,3.9-7.2,5.3l8.4,12.1&#xA;&#x9;&#x9;&#x9;&#x9;C171.8,213.8,171.8,213.7,171.8,213.6"></path>
&#x9;&#x9;&#x9;<path fill="#F1DC43" d="M118.1,136c2.1-1.3,4.3-2.7,6.3-4.3c1.7-1.2,3.4-2.3,5.1-3.4l-37-61.1l0,0c-1.1,1.3-2,2.5-3,3.8l-1.2,1.6&#xA;&#x9;&#x9;&#x9;&#x9;c-0.8,1.1-1.7,2.3-2.4,3.5c-0.4,0.6-0.8,1.1-1.1,1.7c-0.9,1.4-1.8,2.7-2.6,4.1c-0.2,0.3-0.4,0.6-0.6,1L118.1,136z"></path>
&#x9;&#x9;&#x9;<path fill="#F1DC43" d="M153.8,119.8l-30.3-81.1l0,0L123,39c-2.1,1.4-4.1,2.9-6.1,4.4c-0.6,0.5-1.2,0.9-1.8,1.4&#xA;&#x9;&#x9;&#x9;&#x9;c-1.8,1.4-3.5,2.8-5.2,4.3c-0.2,0.2-0.4,0.3-0.6,0.5l0,0l31.9,73.2C145.3,121.3,149.5,120.3,153.8,119.8"></path>
&#x9;&#x9;&#x9;<path fill="#F1DC43" d="M80,160.9c-0.4-1.6-1-3.1-1.9-4.5l-16.6-12.1l0,0c-0.1,0.8-0.1,1.5-0.1,2.3c-0.1,1.1-0.1,2.1-0.2,3.1&#xA;&#x9;&#x9;&#x9;&#x9;c-0.1,1.9-0.1,3.9-0.1,5.8c0,0.3,0,0.6,0,0.8s0,0.5,0,0.8c0,1.6,0,3.2,0.1,4.8l0,0l26.4,17.1C84,173.5,81.5,167.4,80,160.9"></path>
&#x9;&#x9;&#x9;<path fill="#F1DC43" d="M115.9,195.7c2.8-1.7,5.2-3.9,7.3-6.5l-2.7-2c-4.9,1.6-10,2.4-15.2,2.3c-0.6,0-1.2-0.1-1.8-0.2l11.3,7.3&#xA;&#x9;&#x9;&#x9;&#x9;C115,196.3,115.4,196,115.9,195.7"></path>
&#x9;&#x9;&#x9;<path fill="#F1DC43" d="M104.6,142.5l-34.3-36.7l0,0c-0.1,0.2-0.1,0.3-0.2,0.5c-0.8,2.1-1.5,4.3-2.2,6.4c-0.1,0.4-0.3,0.9-0.4,1.3&#xA;&#x9;&#x9;&#x9;&#x9;c-0.8,2.6-1.5,5.2-2.2,7.9c0,0,0,0.1,0,0.1l0,0l21.4,20.8C92.5,144.6,98.8,144.5,104.6,142.5"></path>
&#x9;&#x9;&#x9;<path fill="#F1DC43" d="M173.2,193.5c-0.3,0.3-0.6,0.6-0.9,1l0.7,1.7C173.1,195.2,173.1,194.4,173.2,193.5"></path>
&#x9;&#x9;</g>
&#x9;</g>
&#x9;<polygon fill="#F1DC43" points="260.2,210.6 259,200.4 255.2,203.1 258.2,210.6 &#x9;"></polygon>
&#x9;<polygon fill="#F1DC43" points="274.2,200.3 261.3,200.3 262.4,210 274.3,202.3 &#x9;"></polygon>
&#x9;<polygon fill="#F1DC43" points="292.7,190.5 304.7,182.8 293,182.8 &#x9;"></polygon>
&#x9;<polygon fill="#F1DC43" points="308.7,198.1 314.9,198.1 317.6,190.1 309.2,193.9 &#x9;"></polygon>
&#x9;<polygon fill="#F1DC43" points="308.4,200.3 307.5,207.9 312.2,206.1 314.1,200.3 &#x9;"></polygon>
&#x9;<polygon fill="#F1DC43" points="306.1,200.3 295.1,200.3 292.4,201.6 292.1,210.6 300.7,210.6 305.2,208.9 &#x9;"></polygon>
&#x9;<g>
&#x9;&#x9;<defs>
&#x9;&#x9;&#x9;<rect id="SVGID_00000145023031950857761430000014730417083035875470_" x="-110" y="-256.4" width="1115" height="791.3"></rect>
&#x9;&#x9;</defs>
&#x9;&#x9;<clipPath id="SVGID_00000140694658490151012740000001139009409678834824_">
&#x9;&#x9;&#x9;<use xlink:href="#SVGID_00000145023031950857761430000014730417083035875470_" style="overflow:visible;"></use>
&#x9;&#x9;</clipPath>
&#x9;&#x9;<g style="clip-path:url(#SVGID_00000140694658490151012740000001139009409678834824_);">
&#x9;&#x9;&#x9;<path fill="#F1DC43" d="M285.7,166.9l52.3-50.8l0,0c-0.1-0.2-0.2-0.5-0.2-0.7c-0.2-0.8-0.5-1.6-0.7-2.4c-0.5-1.7-1.1-3.3-1.7-4.9&#xA;&#x9;&#x9;&#x9;&#x9;c-0.1-0.2-0.1-0.4-0.2-0.6c-0.7-1.9-1.4-3.8-2.2-5.6c-0.2-0.6-0.5-1.1-0.7-1.7c-0.2-0.6-0.4-1.1-0.6-1.5l0,0L269,166.9H285.7z"></path>
&#x9;&#x9;</g>
&#x9;</g>
&#x9;<polygon fill="#F1DC43" points="272.6,210.6 274.5,210.6 274.5,209.8 &#x9;"></polygon>
&#x9;<polygon fill="#F1DC43" points="276.5,200.3 276.5,200.9 277.4,200.3 &#x9;"></polygon>
&#x9;<polygon fill="#F1DC43" points="290,202.7 276.7,208.7 276.8,210.6 289.8,210.6 &#x9;"></polygon>
&#x9;<polygon fill="#F1DC43" points="306.4,198.1 306.7,195 300.1,198.1 &#x9;"></polygon>
&#x9;<path fill="#F1DC43" d="M113.6,235.5c8.1-1.9,16.4-3.5,25-4.9l-64.7-15.1h-0.1c0.2,0.4,0.4,0.8,0.6,1.3c0.6,1.3,1.2,2.6,1.9,3.8&#xA;&#x9;&#x9;c0.5,1,1,2,1.5,3c0.8,1.5,1.7,3.1,2.6,4.6c0.3,0.6,0.6,1.2,1,1.7l0,0L113.6,235.5z"></path>
&#x9;<path fill="#F1DC43" d="M276,226.8c0.7,1.2,1,2.6,1.1,4c0,0.9-0.2,1.7-0.4,2.5c3.2,0.7,6.3,1.3,9.3,2l9.8-1.7&#xA;&#x9;&#x9;c-0.3-0.9-0.5-1.9-0.5-2.9c0-4.7,3.8-8.6,8.6-8.6c4.7,0,8.6,3.8,8.6,8.6l11.7-2l0,0c0.3-0.5,0.6-1.1,0.9-1.6c0.9-1.5,1.7-3,2.5-4.6&#xA;&#x9;&#x9;c0.5-0.8,0.9-1.7,1.3-2.6c0.7-1.4,1.4-2.9,2.1-4.4c0.3-0.6,0.6-1.1,0.8-1.7h-0.1L276,226.8z"></path>
&#x9;<path fill="#F1DC43" d="M90.7,241.8h-1.2l0,0l0.3,0.4L90.7,241.8"></path>
&#x9;<path fill="#F1DC43" d="M314.1,243.3l0.3-0.4c0.4-0.5,0.7-0.9,1.1-1.3l0,0l-6.4,0.2C310.8,242.2,312.5,242.8,314.1,243.3"></path>
&#x9;<path fill="#3C312E" d="M303.8,239.4c4.7,0,8.5-3.8,8.5-8.5l0,0c0-4.7-3.8-8.6-8.6-8.6c-4.7,0-8.6,3.8-8.6,8.6c0,1,0.2,2,0.5,2.9&#xA;&#x9;&#x9;C296.9,237.2,300.2,239.4,303.8,239.4"></path>
&#x9;<path fill="#3C312E" d="M276,226.8c-1.1-2.1-3.1-3.7-5.5-4.3c-0.7-0.2-1.4-0.3-2.1-0.3c-4.6,0-8.3,3.6-8.5,8.2&#xA;&#x9;&#x9;c5.7,0.9,11.2,1.9,16.7,3c0.3-0.8,0.4-1.7,0.4-2.5C277,229.4,276.6,228,276,226.8"></path>
&#x9;<path fill="#3C312E" d="M204.6,225c-0.1,0.3-0.1,0.6-0.2,0.9h-4.4c-2.8,0-5.6,0.1-8.3,0.1c-1.7-5.9-0.6-11.6,0.6-17.2&#xA;&#x9;&#x9;c0.4-2,1-4.1,1.7-6c0.2-0.4,0.3-0.9,0.5-1.3c0.9-2.1,2-4.1,3.3-6c1-1.4,2.4-2.7,3.4,0c0.5,1.5,1.1,2.9,1.5,4.3&#xA;&#x9;&#x9;c0.2,0.8,0.5,1.5,0.7,2.3C205.6,209.6,206.6,217.1,204.6,225 M225.4,137.4l0.6,0.3c4.6,2.5,4.5,2.7,0.4,7c-0.9,0.9-1.7,1.8-2.5,2.7&#xA;&#x9;&#x9;c-1,1.1-2.1,2.2-3.2,3.2c-1.8,1.5-3.6,1.6-3.5-1.6c0-2.1,0-4.4,0-6.5C217.1,132.9,217.1,132.9,225.4,137.4 M242.9,170h12.7l0.1,1.2&#xA;&#x9;&#x9;l1.1,9.1v0.2h-10.6l-2.9-7.2l-0.8-2.5l-0.3-0.8L242.9,170z M273.2,170l0.3,8.9v1.6H259l-0.3-2.4l-0.9-8.1H273.2L273.2,170z&#xA;&#x9;&#x9; M282.6,170h8.5l-0.2,7.4l-0.1,3.2h-15l-0.1-3.8l-0.2-6.7L282.6,170z M301.1,170h8.6l-1.2,10.4v0.2h-15.4l0.1-4.8l0.2-5.7H301.1z&#xA;&#x9;&#x9; M324.4,170v0.2l-3.5,10.4h-10.2l0.2-1.8l1-8.8H324.4z M315,198.1h-6.2l0.5-4.1l1.3-11.1h9.6l-2.4,7.3L315,198.1z M310.7,210.6&#xA;&#x9;&#x9;h-3.5l0.3-2.7l0.9-7.6h5.7l-1.9,5.7L310.7,210.6z M300.7,210.6h-8.6l0.3-9v-1.3h13.7l-1,8.5l-0.2,1.8L300.7,210.6z M276.8,208.7&#xA;&#x9;&#x9;l-0.3-7.8v-0.6h13.7l-0.1,2.3l-0.3,8h-13L276.8,208.7z M272.6,210.6h-10.1l-0.1-0.7l-1.1-9.6h12.9l0.1,2l0.2,7.4v0.9L272.6,210.6z&#xA;&#x9;&#x9; M254.1,200.3h5l0,0l1.2,10.3h-2l-3.1-7.5L254.1,200.3z M308.2,182.8l-1.4,12.3l-0.4,3h-13.9l0.3-7.6l0.3-7.7H308.2L308.2,182.8z&#xA;&#x9;&#x9; M275.9,182.8h14.8l-0.3,9.2l-0.2,6.1h-13.8l-0.3-10L275.9,182.8z M259.3,182.8h14.3l0.2,6.9l0.3,8.4h-13.1l-0.7-6.4L259.3,182.8z&#xA;&#x9;&#x9; M253.2,198.1l-3.9-9.7l-2.1-5.2l-0.2-0.4h10l1.3,10.9l0.5,4.4H253.2L253.2,198.1z M314.1,243.3c-1.7-0.6-3.3-1.1-5-1.6&#xA;&#x9;&#x9;c-7.5-2.4-15.2-4.5-23.2-6.3c-3.1-0.7-6.2-1.4-9.3-2c-5.5-1.1-11-2.1-16.7-3c-2.3-0.4-4.6-0.7-6.9-1c-5.7-0.8-11.4-1.4-17.2-1.9&#xA;&#x9;&#x9;h-0.4c-0.7-0.1-1.5-0.2-2.2-0.2c0-2.6-1.5-4.4-3.5-5.6l-0.1-0.1c-0.6-0.4-1.3-0.7-2-1c-2.1-0.6-3.5-2.6-3.6-4.8&#xA;&#x9;&#x9;c-0.4-4.3-0.8-8.6-1.2-12.9l-0.3-3c-0.6-6.4-1.3-12.8-1.9-19.2c-0.4-3.9-0.8-7.8-1.2-11.6c0-0.4,0-0.7,0-1.1h13.5l1.6,4.1l2.8,6.9&#xA;&#x9;&#x9;l4.6,11.6l1.6,4l3.9,9.6l1.4,3.5l3.3,8.1c0.1,0.2,0.2,0.4,0.3,0.6c0.7,1.1,1.9,1.8,3.2,1.8h56.8c2.1,0,3.8-1.7,3.8-3.7&#xA;&#x9;&#x9;c0-1.6-1-3-2.4-3.6l2.1-6.3l5.5-16.3l6.5-19.5c0.1-0.4,0.1-0.7-0.1-1.1c0-0.1-0.1-0.2-0.1-0.3c-0.3-0.4-0.8-0.6-1.2-0.6h-85.7&#xA;&#x9;&#x9;l-1.7-4.3c-0.1-0.1-0.1-0.2-0.2-0.4c-0.6-1.2-1.9-2-3.3-2h-7.6c0.3-1.2,0.8-2.3,1.5-3.2c0.7-0.9,1.6-1.8,2.5-2.5&#xA;&#x9;&#x9;c2.9-2.4,5.8-4.9,8.8-7.2c5.9-4.6,5.8-10.1-0.2-14.7c-0.5-0.4-1.1-0.8-1.6-1.2c-3.3-2.4-6.6-4.8-10-7c-3.3-2.2-6.7-4.1-10.3-5.9&#xA;&#x9;&#x9;c5.6-5.1,10.1-10.6,12-17.8c0.5-2.1,1.7-3.9,3.6-5.1c0.5-0.4,1-0.8,1.4-1.3c1.6-1.9,2.2-4.5,1.5-6.9c-0.4-1.4-1.4-2.6-2.9-3&#xA;&#x9;&#x9;c-2.9-0.6-5-3.2-5-6.1c-0.2-3.1-1-4.9-3.5-6.2c-0.2-0.2-0.3-0.4-0.4-0.6c-0.1-0.1-0.1-0.3-0.1-0.5l0.2-0.1c1.9-1.2,1.3-1.9,0.4-2.4&#xA;&#x9;&#x9;c-0.6-0.3-1.3-0.5-1.5-0.7c-2.6-2-5.4-3.5-8-5.2c0.8-2,3.2-2.1,3.9-4.4c-1.7,0.4-3.1,0.7-4.6,1c-1.4,0.3-3,1.7-4.1,0.6&#xA;&#x9;&#x9;c-1.3-1.4,0.7-2.8,1-4.3c0-0.3-0.1-0.5-0.2-0.8c-2.2,0.7-3.4,4.2-6.2,3.4c-0.5-0.2-1.1-0.4-1.5-0.7c-2.7-1.8-3.8-4.6-5.2-7.4&#xA;&#x9;&#x9;c-1.7,2.4-1,5-1.6,7.4c-2.6-0.8-5-1.9-7.4-3.2c-1.3-0.7-2.6-1.4-4-2c0,1.6,2.1,2.1,1.4,4.1l-7.9-2.8c0.5,0.6,1,1.2,1.5,1.8&#xA;&#x9;&#x9;c3.1,2.1,2.4,3.5-0.6,5.2c-3.2,1.8-6.5,2.1-10.3,1.6c3,1.9,2.5,3.2,0.7,4.9l-0.5,0.5c-4,3.5-6.9,8-8.6,13c-0.5,1.3-0.7,2.9-2.6,3.1&#xA;&#x9;&#x9;h-0.1c-3,0.3-4.8,1.9-5.2,4.9c-0.4,3.2,1.1,6.3,3.9,7.8c0.9,0.6,2.3,0.5,2.6,2c0.8,3.6,2.2,7,4.1,10.1c2.5,4.1,5.8,7.7,9.6,10.7&#xA;&#x9;&#x9;c-0.6,0.3-0.8,0.5-1.1,0.5c-1.1,0-2,0-3.1-0.1c-1-0.1-2.1-0.2-3.1-0.3c-4.6-0.3-9.2-0.2-13.7,0.4c-4.3,0.6-8.5,1.6-12.5,3.1&#xA;&#x9;&#x9;c-4.1,1.5-8,3.3-11.8,5.6c-1.7,1-3.4,2.2-5.1,3.4c-2.1,1.5-4.1,2.9-6.3,4.3c-2.4,1.5-5,2.9-7.5,4.2c-1.9,0.9-3.9,1.7-6,2.4&#xA;&#x9;&#x9;c-5.8,2-12.1,2.1-17.9,0.3c-4-1.3-7.6-3.5-10.6-6.4c-1.9-1.8-3.4-3.9-5.2-5.8c-0.4,0.3-0.7,0.5-0.9,0.7c-0.2,0.4-0.4,0.8-0.5,1.2&#xA;&#x9;&#x9;c-2.3,8.4,0.5,15.3,6.4,21.1c0.9,0.9,1.7,1.8,2.3,2.9c0.9,1.4,1.5,2.9,1.9,4.5c1.5,6.5,4,12.6,7.6,18.2c0.2,0.2,0.3,0.5,0.5,0.7&#xA;&#x9;&#x9;c3.4,5.4,9.1,8.9,15.4,9.5c0.6,0.1,1.2,0.1,1.8,0.2c5.2,0.1,10.3-0.7,15.2-2.3c1.7-0.5,3.3-1.1,5.1-1.7c-0.7,1.3-1.5,2.4-2.4,3.6&#xA;&#x9;&#x9;c-2,2.6-4.5,4.8-7.3,6.5c-0.5,0.3-0.9,0.6-1.2,1c-0.5,0.6-0.4,1.2,0.7,2.2c5.5,4.7,11.3,8.4,17.8,9.8c5.2,1.1,10.7,0.9,15.8-0.7&#xA;&#x9;&#x9;c0.9-0.3,1.8-0.6,2.7-0.9l0.7-0.3c3-1.1,5.9-2.3,8.7-3.8c0.8-0.4,1.6-0.8,2.4-1.3c2.6-1.5,5-3.3,7.2-5.3c0.6-0.6,1.2-1.2,1.7-1.9&#xA;&#x9;&#x9;c0.3-0.3,0.6-0.6,0.9-1c0,0.9-0.1,1.8-0.1,2.6c-0.1,1.3-0.1,2.6-0.2,3.9c-0.3,4.6-0.7,9.1-1.1,13.6c0,0,0,0.1,0,0.1&#xA;&#x9;&#x9;c0,0.2,0,0.4-0.1,0.6c-0.3,3.2-0.7,6.1-4.7,7.5c-2.4,0.8-4,3.1-3.9,5.6l-0.7,0.1l-0.5,0.1c-5.7,0.6-11.4,1.2-17,2&#xA;&#x9;&#x9;c-2.1,0.3-4.2,0.6-6.2,1c-8.6,1.4-16.9,3-25,4.9c-7.9,1.9-15.5,3.9-22.9,6.3l-1,0.3c-1.6,0.5-3.1,1-4.7,1.5&#xA;&#x9;&#x9;c71.6,44.4,161.9,44.9,234,1.3C317.4,244.4,315.8,243.9,314.1,243.3L314.1,243.3z"></path>
&#x9;<path fill="#3C312E" d="M66.7,232.9c82.4,61.3,191.4,61.1,273.6-0.4l29,37.5c-99,74.7-232.3,74.9-331.6,0.5&#xA;&#x9;&#x9;C47.4,258,57.1,245.5,66.7,232.9 M36.9,271.6c48.8,36.6,106.3,55.9,166.3,55.9c60.3,0,118.1-19.5,167-56.4l0.6-0.4l0.6-0.5&#xA;&#x9;&#x9;l-13.8-17.8l-0.9-1.1l-16.1-20.8l-1.1,0.8l-0.4,0.3c-2.4,1.8-4.8,3.5-7.2,5.2c-3.8,2.6-7.8,5.1-11.7,7.5l-1.1,0.7&#xA;&#x9;&#x9;c-72.1,43.6-162.4,43.1-234-1.4l-1.4-0.8c-2.6-1.6-5.2-3.3-7.7-5c-2.8-1.9-5.5-3.8-8.2-5.8l-0.2-0.2l-1.1-0.8l-15.9,20.7l-0.9,1.1&#xA;&#x9;&#x9;l-7.7,10l-6.2,8.1L36.9,271.6z"></path>
&#x9;<path fill="#F1DC43" d="M122.1,279.2c-0.4-0.4-0.8-0.6-1.3-0.8l-6.5-2.4l-2.6,7.3l6.5,2.4c0.5,0.2,1,0.3,1.5,0.2c0.5,0,1-0.2,1.4-0.4&#xA;&#x9;&#x9;c0.5-0.2,0.9-0.5,1.2-0.9c0.4-0.4,0.6-0.8,0.8-1.3c0.2-0.5,0.3-1,0.2-1.5c0-0.5-0.1-1-0.4-1.5C122.7,280,122.4,279.6,122.1,279.2"></path>
&#x9;<path fill="#F1DC43" d="M158.5,296.6c0.5-0.1,1-0.3,1.4-0.6c0.4-0.3,0.8-0.7,1.1-1.1c0.3-0.4,0.5-0.9,0.6-1.4c0.1-0.5,0.1-1,0-1.5&#xA;&#x9;&#x9;c-0.1-0.5-0.3-1-0.6-1.4c-0.3-0.4-0.6-0.8-1.1-1.1c-0.4-0.3-0.9-0.5-1.4-0.6l-6.5-1.3l-1.5,7.7l6.5,1.3&#xA;&#x9;&#x9;C157.5,296.6,158,296.6,158.5,296.6"></path>
&#x9;<path fill="#F1DC43" d="M200.4,313.2c-2-0.8-3.7-2.3-4.7-4.3c-0.5-1-0.8-2.1-0.9-3.2l0,0v-14.7h2.4V305c0,0.9,0.2,1.7,0.5,2.5&#xA;&#x9;&#x9;c0.3,0.8,0.8,1.5,1.4,2.1c0.6,0.6,1.3,1.1,2.1,1.4c0.8,0.3,1.7,0.5,2.5,0.5c0.8,0,1.7-0.1,2.5-0.5c0.8-0.3,1.5-0.8,2.1-1.4&#xA;&#x9;&#x9;c0.6-0.6,1.1-1.3,1.4-2.1c0.3-0.8,0.5-1.6,0.5-2.5v-13.9h2.3V305c0,1.2-0.2,2.4-0.7,3.5c-0.9,2.1-2.6,3.8-4.7,4.7&#xA;&#x9;&#x9;c-1.1,0.5-2.3,0.7-3.5,0.7C202.5,313.9,201.4,313.6,200.4,313.2 M186.6,313.3l-2.2-2.8c-1.1,0.7-2.3,1.2-3.5,1.5&#xA;&#x9;&#x9;c-1.2,0.3-2.5,0.4-3.8,0.3c-1.5-0.2-2.9-0.6-4.3-1.3c-2.6-1.4-4.5-3.8-5.4-6.6c-0.5-1.4-0.6-3-0.4-4.5c0.1-1.5,0.6-3,1.3-4.3&#xA;&#x9;&#x9;c1.4-2.6,3.8-4.5,6.6-5.3c1.4-0.5,3-0.6,4.5-0.4c1.5,0.1,2.9,0.6,4.3,1.3c2.6,1.4,4.5,3.8,5.3,6.6c0.8,2.7,0.6,5.6-0.6,8.2&#xA;&#x9;&#x9;c-0.6,1.2-1.3,2.2-2.2,3.1l2.3,2.8L186.6,313.3z M158.7,309.7l-8.8-11.5l-1.8,9.5l-2.3-0.4l4.3-22.3l8.8,1.7c1.6,0.3,3.1,1.3,4,2.6&#xA;&#x9;&#x9;c0.4,0.7,0.8,1.4,0.9,2.2c0.2,0.8,0.2,1.7,0,2.5c-0.5,2.5-2.4,4.4-4.8,5c-0.8,0.2-1.6,0.2-2.5,0l-3.6-0.7l9.3,12.2L158.7,309.7z&#xA;&#x9;&#x9; M139.9,305.7l-14.4-4l6.1-21.9l14.4,4l-0.6,2.3l-12.1-3.4l-2.1,7.5l8.8,2.5l-0.6,2.3l-8.8-2.5l-2.1,7.5l12.1,3.4L139.9,305.7z&#xA;&#x9;&#x9; M124.1,286.3c-0.6,0.6-1.2,1.1-1.9,1.4c-1.5,0.7-3.2,0.8-4.8,0.2l-6.5-2.4l-3.5,9.6l-2.2-0.8l7.7-21.4l8.7,3.2&#xA;&#x9;&#x9;c0.8,0.3,1.5,0.7,2.1,1.3c0.6,0.5,1.1,1.2,1.4,1.9c0.3,0.7,0.5,1.5,0.6,2.3C125.8,283.5,125.2,285.2,124.1,286.3 M101.2,286.9&#xA;&#x9;&#x9;c-0.9,0.8-1.8,1.4-2.9,1.8c-1.1,0.4-2.2,0.6-3.4,0.6c-1.2,0-2.4-0.3-3.4-0.8c-1-0.5-2-1.1-2.7-1.9c-0.8-0.8-1.4-1.7-1.8-2.7&#xA;&#x9;&#x9;c-0.9-2-1-4.3-0.3-6.4l0,0l0.4-0.8l5.7-12.6l2.1,1l-5.7,12.6c-0.4,0.8-0.6,1.6-0.6,2.5c0,0.8,0.1,1.7,0.4,2.5&#xA;&#x9;&#x9;c0.9,2.5,3.3,4.2,5.9,4.3c0.8,0,1.7-0.1,2.5-0.4c0.8-0.3,1.5-0.7,2.1-1.3c0.6-0.6,1.2-1.3,1.5-2.1l0.1-0.1l5.7-12.6l2.1,1&#xA;&#x9;&#x9;l-5.7,12.6C102.7,285.1,102,286,101.2,286.9 M79.1,278.1c-0.7,0.5-1.5,0.8-2.3,1c-0.9,0.1-1.8,0.1-2.7,0c-1-0.2-1.9-0.5-2.7-1&#xA;&#x9;&#x9;l-1.7-1c-0.9-0.5-1.6-1.1-2.3-1.8c-0.6-0.7-1-1.5-1.4-2.3c-0.3-0.8-0.4-1.7-0.4-2.5c0-0.8,0.3-1.7,0.7-2.4l0.1-0.1l0.5-0.8l2.1,1.2&#xA;&#x9;&#x9;l-0.5,0.9c-0.3,0.5-0.4,1-0.4,1.5c0,0.5,0.1,1.1,0.3,1.6c0.2,0.5,0.6,1,0.9,1.5c0.4,0.5,0.9,0.9,1.5,1.2l1.7,1&#xA;&#x9;&#x9;c0.6,0.3,1.2,0.5,1.8,0.7c0.6,0.1,1.2,0.1,1.7,0c0.5-0.1,1.1-0.3,1.5-0.6c0.9-0.6,1.5-1.6,1.5-2.6c0-0.6-0.1-1.1-0.3-1.6&#xA;&#x9;&#x9;c-0.2-0.5-0.5-1.1-0.9-1.5c-0.4-0.5-0.9-0.9-1.5-1.2h-0.1L76,269l-0.4-0.2c-0.6-0.4-1.1-0.8-1.8-1.2c-0.5-0.4-1-0.9-1.3-1.4&#xA;&#x9;&#x9;c-1.4-2.5-1.6-4.7-0.5-6.6c0.4-0.8,1-1.4,1.8-1.9c0.7-0.5,1.5-0.8,2.4-1c0.9-0.2,1.8-0.2,2.7,0c1,0.2,1.9,0.5,2.7,1l0.5,0.3&#xA;&#x9;&#x9;c0.8,0.5,1.5,1.1,2.1,1.8c0.6,0.7,1,1.4,1.4,2.2c0.3,0.8,0.5,1.6,0.5,2.4c0,0.8-0.2,1.6-0.6,2.4l-0.4,0.9l-2.1-1.2l0.4-0.8&#xA;&#x9;&#x9;c0.2-0.5,0.3-1,0.3-1.5c0-0.5-0.1-1.1-0.4-1.5c-0.2-0.5-0.6-1-0.9-1.4c-0.4-0.5-0.9-0.8-1.4-1.1l-0.5-0.3c-0.6-0.3-1.2-0.5-1.8-0.7&#xA;&#x9;&#x9;c-0.6-0.1-1.2-0.1-1.7,0c-0.5,0.1-1.1,0.3-1.5,0.6c-0.4,0.3-0.8,0.7-1.1,1.1c-0.3,0.5-0.4,1-0.4,1.5c0,0.5,0.1,1.1,0.2,1.5&#xA;&#x9;&#x9;c0.2,0.5,0.5,1,0.9,1.5c0.4,0.5,0.9,0.9,1.4,1.2l0.1,0.1h0.1l0.8,0.5l0,0c0.5,0.3,1,0.6,1.4,0.9h0.1c0.7,0.5,1.3,1.1,1.7,1.8&#xA;&#x9;&#x9;c0.4,0.7,0.8,1.4,0.9,2.1c0.2,0.7,0.2,1.5,0.1,2.2c-0.2,1.6-1,3.1-2.4,4 M227,290l0.2,2.4l-3.8,0.3l1.4,17.9l3.9-0.3l0.2,2.4&#xA;&#x9;&#x9;l-10.1,0.8l-0.2-2.4l3.8-0.3l-1.4-17.9l-3.9,0.3l-0.2-2.4L227,290z M249.5,286.8l3.6,22.4l-1.9,0.3l-16.9-15.6l2.9,18l-2.4,0.4&#xA;&#x9;&#x9;l-3.6-22.4l1.9-0.3l16.9,15.8l-2.8-18L249.5,286.8z M264.5,283.3c1.5-0.4,3-0.5,4.5-0.3c1.4,0.2,2.8,0.7,4.1,1.4&#xA;&#x9;&#x9;c1.3,0.7,2.4,1.7,3.3,2.9c1.7,2.2,2.6,5.1,2.3,7.9c-0.1,1.3-0.4,2.5-0.9,3.7l3.1,1.8l-1.2,2.2l-3.1-1.8c-0.8,1-1.7,2-2.7,2.7&#xA;&#x9;&#x9;c-2.4,1.6-5.2,2.3-8,1.9c-2.9-0.4-5.6-1.9-7.4-4.3c-0.9-1.2-1.6-2.6-2-4c-0.4-1.5-0.5-3-0.2-4.5c0.2-1.5,0.7-2.8,1.4-4.1&#xA;&#x9;&#x9;c0.7-1.3,1.7-2.4,2.8-3.4c1.2-0.9,2.6-1.6,4-2 M338.7,277.6l-21.1-9.4l8.5,16.1l-2.1,1.1l-10.6-20.1l1.7-0.9l21.1,9.4l-8.5-16.1&#xA;&#x9;&#x9;l2.1-1.1l10.6,20.1L338.7,277.6z M309.4,292l-1-2.1l3.5-1.6l-7.4-16.4l-3.5,1.6l-1-2.1l9.2-4.2l1,2.1l-3.5,1.6l7.4,16.4l3.5-1.6&#xA;&#x9;&#x9;l1,2.1L309.4,292z M300.7,292.7c-0.5,1.1-1.2,2-2,2.8c-0.9,0.8-1.9,1.5-3,1.9c-1.1,0.4-2.2,0.6-3.3,0.6c-3.3-0.1-6.4-2-7.8-5l0,0&#xA;&#x9;&#x9;l-0.3-0.8l-4.8-12.9l2.2-0.8l4.8,13c0.3,0.8,0.8,1.5,1.4,2.1c0.6,0.6,1.3,1.1,2,1.4c1.6,0.7,3.4,0.8,5,0.1c0.8-0.3,1.6-0.8,2.2-1.4&#xA;&#x9;&#x9;c0.6-0.6,1.1-1.3,1.5-2c0.8-1.5,0.9-3.3,0.2-4.9v-0.1l-4.8-12.9l2.2-0.8l4.7,13c0.4,1.1,0.6,2.3,0.5,3.5&#xA;&#x9;&#x9;C301.4,290.5,301.1,291.7,300.7,292.7 M369.4,270l-29.1-37.5c-82.2,61.5-191.2,61.7-273.6,0.4c-9.6,12.5-19.3,25-28.9,37.6&#xA;&#x9;&#x9;C137.1,344.9,270.4,344.6,369.4,270"></path>
&#x9;<path fill="#F1DC43" d="M187.1,302c0.1-1.2,0-2.4-0.3-3.5c-0.7-2.3-2.2-4.1-4.3-5.3c-1-0.6-2.2-1-3.4-1.1c-1.2-0.1-2.4,0-3.6,0.3&#xA;&#x9;&#x9;c-2.2,0.7-4.1,2.2-5.2,4.3c-1.2,2.1-1.4,4.6-0.7,7c0.7,2.2,2.2,4.1,4.3,5.2c1.1,0.6,2.2,1,3.4,1.1c1,0.1,1.9,0,2.9-0.2&#xA;&#x9;&#x9;c0.9-0.2,1.8-0.6,2.7-1.1l-3.1-3.8l1.8-1.5l3.1,3.8C186.1,305.8,187,303.9,187.1,302"></path>
&#x9;<path fill="#F1DC43" d="M261.9,287.2c-1.8,1.4-3,3.5-3.4,5.9c-0.2,1.2-0.1,2.4,0.2,3.6c0.3,1.2,0.8,2.3,1.6,3.2&#xA;&#x9;&#x9;c0.7,0.9,1.6,1.7,2.6,2.3c1,0.6,2.1,1,3.2,1.1c1.2,0.2,2.4,0.1,3.6-0.2c1-0.2,1.9-0.7,2.7-1.2c0.8-0.5,1.5-1.2,2.1-2l-4.3-2.5&#xA;&#x9;&#x9;l1.2-2.1l4.3,2.5c0.8-1.8,0.9-3.9,0.4-5.8c-0.3-1.2-0.8-2.3-1.6-3.2c-0.7-0.9-1.6-1.7-2.6-2.3c-1-0.6-2.1-1-3.3-1.1&#xA;&#x9;&#x9;c-1.2-0.2-2.4-0.1-3.5,0.2C263.9,285.9,262.8,286.5,261.9,287.2"></path>
&#x9;<path fill="#3C312E" d="M81.6,274.1c0.1-0.8,0-1.5-0.1-2.2c-0.2-0.8-0.5-1.5-0.9-2.1c-0.5-0.7-1.1-1.3-1.7-1.8h-0.1&#xA;&#x9;&#x9;c-0.4-0.3-0.9-0.6-1.4-0.9l0,0l-0.8-0.5h-0.1l-0.1-0.1c-0.5-0.3-1-0.7-1.4-1.2c-0.4-0.4-0.7-0.9-0.9-1.5c-0.2-0.5-0.3-1-0.2-1.5&#xA;&#x9;&#x9;c0-1.1,0.6-2,1.5-2.6c0.5-0.3,1-0.5,1.5-0.6c0.6-0.1,1.2-0.1,1.7,0c0.6,0.1,1.2,0.3,1.8,0.7l0.5,0.3c0.5,0.3,1,0.7,1.4,1.1&#xA;&#x9;&#x9;c0.4,0.4,0.7,0.9,0.9,1.4c0.2,0.5,0.3,1,0.4,1.5c0,0.5-0.1,1-0.3,1.5l-0.4,0.8l2.1,1.2l0.4-0.9c0.4-0.7,0.6-1.5,0.6-2.4&#xA;&#x9;&#x9;c0-0.8-0.2-1.7-0.5-2.4c-0.3-0.8-0.8-1.6-1.4-2.2c-0.6-0.7-1.3-1.3-2.1-1.8l-0.5-0.3c-0.8-0.5-1.8-0.8-2.7-1&#xA;&#x9;&#x9;c-0.9-0.2-1.8-0.2-2.7,0c-0.8,0.2-1.6,0.5-2.4,1c-0.7,0.5-1.3,1.1-1.7,1.8c-1.1,1.9-0.9,4.1,0.5,6.6c0.3,0.6,0.8,1.1,1.3,1.4&#xA;&#x9;&#x9;c0.6,0.5,1.2,0.9,1.8,1.2l0.4,0.2l0.3,0.2h0.1c0.6,0.3,1.1,0.7,1.5,1.2c0.4,0.4,0.7,0.9,0.9,1.5c0.2,0.5,0.3,1.1,0.3,1.6&#xA;&#x9;&#x9;c0,1.1-0.6,2.1-1.5,2.6c-0.5,0.3-1,0.5-1.5,0.6c-0.6,0.1-1.2,0.1-1.7,0c-0.6-0.1-1.2-0.3-1.8-0.7l-1.7-1c-0.6-0.3-1.1-0.7-1.5-1.2&#xA;&#x9;&#x9;c-0.4-0.4-0.7-0.9-0.9-1.5c-0.2-0.5-0.3-1-0.3-1.6c0-0.5,0.2-1,0.4-1.5l0.5-0.9l-2.1-1.2l-0.5,0.8l-0.1,0.1&#xA;&#x9;&#x9;c-0.4,0.7-0.7,1.6-0.7,2.4c0,0.9,0.1,1.7,0.4,2.5c0.3,0.8,0.8,1.6,1.4,2.3c0.6,0.7,1.4,1.4,2.3,1.8l1.7,1c0.8,0.5,1.8,0.8,2.7,1&#xA;&#x9;&#x9;c0.9,0.1,1.8,0.1,2.7,0c0.8-0.2,1.6-0.5,2.3-1C80.6,277.2,81.5,275.8,81.6,274.1"></path>
&#x9;<path fill="#3C312E" d="M106.8,270.4l-5.7,12.5l-0.1,0.1c-0.4,0.8-0.9,1.5-1.5,2.1c-0.6,0.6-1.3,1-2.1,1.3c-0.8,0.3-1.6,0.4-2.5,0.4&#xA;&#x9;&#x9;c-0.9,0-1.7-0.2-2.5-0.6c-0.8-0.4-1.5-0.9-2.1-1.5c-1.2-1.2-1.8-2.9-1.8-4.6c0-0.9,0.2-1.7,0.6-2.5l5.7-12.6l-2.1-1L87,276.5&#xA;&#x9;&#x9;l-0.4,0.8l0,0c-0.3,1.1-0.5,2.2-0.4,3.3c0.1,3.4,2.2,6.4,5.2,7.8c1.1,0.5,2.2,0.8,3.4,0.8c1.2,0,2.3-0.2,3.4-0.6&#xA;&#x9;&#x9;c1.1-0.4,2.1-1,2.9-1.8c0.9-0.8,1.6-1.8,2.1-2.9l5.7-12.6L106.8,270.4z"></path>
&#x9;<path fill="#3C312E" d="M123.1,283.4c-0.2,0.5-0.4,0.9-0.8,1.3c-0.3,0.4-0.8,0.7-1.2,0.9c-0.5,0.2-0.9,0.3-1.4,0.4&#xA;&#x9;&#x9;c-0.5,0-1-0.1-1.5-0.2l-6.5-2.4l2.6-7.3l6.5,2.4c0.5,0.2,0.9,0.4,1.3,0.8c0.4,0.3,0.7,0.7,0.9,1.2c0.2,0.5,0.3,1,0.4,1.5&#xA;&#x9;&#x9;C123.4,282.4,123.3,282.9,123.1,283.4 M125.7,281.8c0-0.8-0.2-1.6-0.6-2.3c-0.3-0.7-0.8-1.4-1.4-1.9c-0.6-0.6-1.3-1-2.1-1.3&#xA;&#x9;&#x9;l-8.7-3.2l-7.7,21.4l2.2,0.8l3.5-9.6l6.5,2.4c1.6,0.6,3.3,0.5,4.8-0.2c0.7-0.4,1.4-0.8,1.9-1.4C125.2,285,125.8,283.4,125.7,281.8"></path>
&#x9;<polygon fill="#3C312E" points="130.5,292.5 139.3,294.9 140,292.6 131.2,290.2 133.2,282.7 145.3,286 146,283.7 131.6,279.7 &#xA;&#x9;&#x9;125.5,301.6 139.9,305.7 140.5,303.4 128.4,300 &#x9;"></polygon>
&#x9;<path fill="#3C312E" d="M152,287.7l6.5,1.3c0.5,0.1,1,0.3,1.4,0.6c0.4,0.3,0.8,0.6,1.1,1.1c0.3,0.4,0.5,0.9,0.6,1.4&#xA;&#x9;&#x9;c0.1,0.5,0.1,1,0,1.5c-0.1,0.5-0.3,1-0.6,1.4c-0.3,0.4-0.7,0.8-1.1,1.1c-0.4,0.3-0.9,0.5-1.4,0.6c-0.5,0.1-1,0.1-1.5,0l-6.5-1.3&#xA;&#x9;&#x9;L152,287.7z M156.5,298.9c0.8,0.2,1.6,0.2,2.5,0c2.5-0.5,4.4-2.5,4.8-5c0.2-0.8,0.2-1.7,0-2.5c-0.2-0.8-0.5-1.5-0.9-2.2&#xA;&#x9;&#x9;c-0.9-1.4-2.3-2.3-4-2.6l-8.8-1.7l-4.3,22.3l2.3,0.4l1.8-9.5l8.8,11.5l3.5,0.7l-9.4-12.2L156.5,298.9z"></path>
&#x9;<path fill="#3C312E" d="M181.6,303.4l-1.8,1.5l3.1,3.8c-0.8,0.5-1.7,0.9-2.7,1.1c-0.9,0.2-1.9,0.3-2.9,0.2c-1.2-0.1-2.4-0.5-3.4-1.1&#xA;&#x9;&#x9;c-2-1.1-3.6-3-4.3-5.2c-0.4-1.2-0.5-2.4-0.4-3.6c0.1-1.2,0.5-2.3,1.1-3.4c1.1-2,3-3.6,5.2-4.3c1.1-0.4,2.4-0.5,3.6-0.3&#xA;&#x9;&#x9;c1.2,0.1,2.3,0.5,3.4,1.1c1,0.6,1.9,1.3,2.6,2.2c0.7,0.9,1.3,1.9,1.6,3.1c0.9,3.1,0.1,6.4-2.1,8.8L181.6,303.4z M188.4,305.9&#xA;&#x9;&#x9;c1.2-2.6,1.4-5.5,0.6-8.2c-0.8-2.8-2.8-5.2-5.3-6.6c-1.3-0.7-2.8-1.2-4.3-1.3c-1.5-0.2-3,0-4.5,0.4c-2.8,0.9-5.2,2.8-6.6,5.3&#xA;&#x9;&#x9;c-0.7,1.3-1.2,2.8-1.3,4.3c-0.2,1.5,0,3,0.4,4.5c0.9,2.8,2.8,5.2,5.4,6.6c1.3,0.7,2.8,1.2,4.3,1.3c1.3,0.1,2.6,0.1,3.8-0.3&#xA;&#x9;&#x9;c1.2-0.3,2.4-0.8,3.5-1.5l2.2,2.8l1.9-1.5l-2.3-2.8C187.2,308.1,187.9,307,188.4,305.9"></path>
&#x9;<path fill="#3C312E" d="M210,311.2c0.8-0.8,1.5-1.8,1.9-2.9c0.5-1.1,0.7-2.3,0.7-3.5v-13.8h-2.4V305c0,0.9-0.2,1.7-0.5,2.5&#xA;&#x9;&#x9;c-0.3,0.8-0.8,1.5-1.4,2.1c-0.6,0.6-1.3,1.1-2.1,1.4c-0.8,0.3-1.7,0.5-2.5,0.5c-1.7,0-3.4-0.7-4.6-1.9c-0.6-0.6-1.1-1.3-1.4-2.1&#xA;&#x9;&#x9;c-0.4-0.8-0.5-1.7-0.5-2.5v-13.9h-2.4v14.7l0,0c0.3,3.3,2.5,6.2,5.6,7.5c1,0.4,2.2,0.6,3.3,0.6c1.2,0,2.4-0.2,3.5-0.7&#xA;&#x9;&#x9;C208.1,312.7,209.1,312.1,210,311.2"></path>
&#x9;<rect x="-110" y="-256.4" fill="none" width="1115" height="791.3"></rect>
&#x9;<polygon fill="#3C312E" points="220.9,292.9 222.3,310.9 218.5,311.2 218.6,313.6 228.7,312.8 228.5,310.4 224.7,310.7 223.3,292.8 &#xA;&#x9;&#x9;227.1,292.5 227,290.1 216.9,290.9 217.1,293.3 &#x9;"></polygon>
&#x9;<polygon fill="#3C312E" points="249.9,305.3 233.1,289.5 231.2,289.8 234.8,312.3 237.1,311.9 234.3,293.9 251.1,309.7 253,309.4 &#xA;&#x9;&#x9;249.4,286.9 247.1,287.3 &#x9;"></polygon>
&#x9;<path fill="#3C312E" d="M268.6,285.5c1.2,0.2,2.3,0.5,3.3,1.1c1,0.6,1.9,1.4,2.6,2.3c0.7,1,1.3,2,1.6,3.2c0.5,1.9,0.4,3.9-0.4,5.8&#xA;&#x9;&#x9;l-4.3-2.5l-1.2,2.1l4.3,2.5c-0.6,0.8-1.3,1.4-2.1,2c-0.8,0.6-1.7,1-2.7,1.2c-1.2,0.3-2.4,0.4-3.6,0.2c-1.1-0.2-2.2-0.6-3.2-1.1&#xA;&#x9;&#x9;c-1-0.6-1.9-1.3-2.6-2.3c-0.7-0.9-1.3-2-1.6-3.2c-0.3-1.2-0.4-2.4-0.2-3.6c0.3-2.3,1.5-4.4,3.4-5.9c0.9-0.8,2-1.3,3.2-1.6&#xA;&#x9;&#x9;C266.2,285.4,267.4,285.3,268.6,285.5 M257.6,288.7c-0.7,1.3-1.2,2.7-1.4,4.2c-0.2,1.5-0.1,3,0.3,4.5c0.4,1.5,1,2.9,2,4&#xA;&#x9;&#x9;c1.8,2.3,4.5,3.9,7.4,4.3c2.8,0.4,5.6-0.3,8-1.9c1.1-0.7,2-1.6,2.7-2.7l3.1,1.8l1.2-2.1l-3.1-1.8c0.5-1.2,0.8-2.4,0.9-3.7&#xA;&#x9;&#x9;c0.1-1.3,0-2.6-0.3-3.9c-0.4-1.5-1.1-2.8-2-4c-0.9-1.2-2-2.1-3.3-2.9c-1.3-0.7-2.6-1.2-4.1-1.4c-1.5-0.2-3-0.1-4.5,0.3&#xA;&#x9;&#x9;c-1.5,0.4-2.8,1-4.1,1.9C259.3,286.3,258.4,287.4,257.6,288.7"></path>
&#x9;<path fill="#3C312E" d="M296.1,272.9l-2.2,0.8l4.8,12.9v0.1c0.6,1.6,0.5,3.4-0.2,4.9c-0.4,0.8-0.9,1.4-1.5,2c-1.3,1.2-3,1.8-4.8,1.8&#xA;&#x9;&#x9;c-0.8,0-1.7-0.2-2.4-0.6c-0.8-0.3-1.5-0.8-2.1-1.4c-0.6-0.6-1.1-1.3-1.4-2.1l-4.8-13l-2.2,0.8l4.8,12.9l0.3,0.8l0,0&#xA;&#x9;&#x9;c0.5,1,1.2,1.9,2,2.6c1.6,1.5,3.7,2.3,5.9,2.4c1.1,0,2.2-0.2,3.3-0.6c1.1-0.4,2.1-1,3-1.9c0.8-0.8,1.5-1.7,2-2.8&#xA;&#x9;&#x9;c0.5-1.1,0.7-2.2,0.8-3.3c0.1-1.2-0.1-2.4-0.5-3.5L296.1,272.9z"></path>
&#x9;<rect x="-110" y="-256.4" fill="none" width="1115" height="791.3"></rect>
&#x9;<polygon fill="#3C312E" points="314.1,287.2 306.8,270.8 310.3,269.2 309.3,267.1 300.1,271.2 301.1,273.4 304.6,271.8 312,288.2 &#xA;&#x9;&#x9;308.5,289.8 309.4,292 318.7,287.8 317.7,285.6 &#x9;"></polygon>
&#x9;<polygon fill="#3C312E" points="329.7,256.6 327.6,257.7 336.1,273.8 315,264.4 313.3,265.3 324,285.4 326.1,284.3 317.6,268.2 &#xA;&#x9;&#x9;338.6,277.6 340.3,276.7 &#x9;"></polygon>
&#x9;<polygon fill="#3C312E" points="113.1,409.9 113.1,413 93.8,413 93.8,383.8 96.9,383.8 96.9,409.9 &#x9;"></polygon>
&#x9;<polygon fill="#3C312E" points="120.4,383.8 139.6,383.8 139.6,386.8 123.4,386.8 123.4,396.8 135.2,396.8 135.2,399.9 123.4,399.9 &#xA;&#x9;&#x9;123.4,409.9 139.6,409.9 139.6,413 120.4,413 &#x9;"></polygon>
&#x9;<polygon fill="#3C312E" points="185.3,383.8 188.4,383.8 188.4,413 185.3,413 185.3,399.9 168,399.9 168,413 165,413 165,383.8 &#xA;&#x9;&#x9;168,383.8 168,396.8 185.3,396.8 &#x9;"></polygon>
&#x9;<path fill="#3C312E" d="M225.2,396.8h8.5c2.8,0,5-2.2,5-5c0-2.8-2.2-5-5-5h-8.5V396.8z M228.9,399.9l14.7,13.1H239l-13.8-12.4V413&#xA;&#x9;&#x9;h-3.1v-29.2h11.5c4.4,0,8,3.6,8,8.1c0,4.4-3.6,8-8,8.1H228.9z"></path>
&#x9;<path fill="#3C312E" d="M273.5,398.3c0-6.3-5.2-11.5-11.5-11.4c-6.3,0-11.4,5.2-11.4,11.5c0,6.3,5.1,11.4,11.4,11.4&#xA;&#x9;&#x9;C268.4,409.8,273.5,404.6,273.5,398.3C273.5,398.3,273.5,398.3,273.5,398.3 M276.5,398.3c0,8-6.5,14.5-14.4,14.5&#xA;&#x9;&#x9;c-8,0-14.4-6.5-14.4-14.5c0-8,6.5-14.5,14.4-14.5C270,383.8,276.5,390.3,276.5,398.3"></path>
&#x9;<path fill="#3C312E" d="M305.1,404.9c0,4.4-4.3,8-9.4,8h-2.5c-5.2,0-9.4-3.6-9.4-8v-0.2v-1.1h3.2v1.3c-0.1,2.7,2.8,5,6.2,5h2.5&#xA;&#x9;&#x9;c3.4,0,6.2-2.2,6.2-5c0-2.7-2.8-5-6.2-5h-1.2c-1.8,0-3.5-0.4-5.1-1.1c-3.2-1.9-4.8-4.2-4.8-7.1c0-4.4,4.3-8,9.4-8h0.7&#xA;&#x9;&#x9;c5,0,9.1,3.4,9.4,7.6l0.1,1.2h-3.2l-0.1-1.1c-0.2-2.6-2.9-4.7-6.2-4.7H294c-3.4,0-6.2,2.2-6.2,5c0,2.7,2.6,4.9,5.9,5h1.5l0,0&#xA;&#x9;&#x9;c0.7,0,1.4,0,2.1,0.1h0.1C301.6,397.3,304.9,400.7,305.1,404.9"></path>
&#x9;<rect x="-110" y="-256.4" fill="none" width="1115" height="791.3"></rect>
&#x9;<path fill="#3C312E" d="M209.7,378.1l-4,3.5h-2.3l3.5-3.5H209.7z M195.7,383.7h19.1v3h-16.1v10h11.7v3h-11.7v10h16.1v3h-19.1V383.7z"></path>
&#x9;<polygon fill="#3C312E" points="16.1,361.9 16.1,363.9 3.3,363.9 3.3,344.5 5.3,344.5 5.3,361.9 &#x9;"></polygon>
&#x9;<polygon fill="#3C312E" points="18.3,344.5 31.1,344.5 31.1,346.5 20.3,346.5 20.3,353.2 28.2,353.2 28.2,355.2 20.3,355.2 &#xA;&#x9;&#x9;20.3,361.9 31.1,361.9 31.1,363.9 18.3,363.9 &#x9;"></polygon>
&#x9;<path fill="#3C312E" d="M56.8,358.6c0,3-2.8,5.3-6.3,5.3h-1.7c-3.4,0-6.3-2.4-6.3-5.3v-0.1v-0.8h2.1v0.9c-0.1,1.8,1.9,3.3,4.2,3.3h1.7&#xA;&#x9;&#x9;c2.3,0,4.2-1.5,4.2-3.3s-1.9-3.3-4.2-3.3h-0.8c-1.2,0-2.3-0.2-3.4-0.7c-2.1-1.3-3.2-2.8-3.2-4.7c0-2.9,2.8-5.3,6.3-5.3H50&#xA;&#x9;&#x9;c3.3,0,6.1,2.2,6.3,5.1v0.8h-2.1l-0.1-0.7c-0.1-1.8-1.9-3.1-4.1-3.1h-0.5c-2.3,0-4.1,1.5-4.1,3.3s1.7,3.3,3.9,3.4h1.1l0,0&#xA;&#x9;&#x9;c0.5,0,0.9,0,1.4,0.1h0.2C54.6,353.5,56.8,355.8,56.8,358.6"></path>
&#x9;<path fill="#3C312E" d="M72.3,344.5h2v11.8c0,4.2-3.5,7.7-7.7,7.6c-3.9,0-7.2-3-7.6-6.9l0,0v-12.6h2v11.9c0.1,3.1,2.8,5.5,5.9,5.4&#xA;&#x9;&#x9;c2.9-0.1,5.2-2.5,5.4-5.4L72.3,344.5L72.3,344.5z"></path>
&#x9;<path fill="#3C312E" d="M87.7,349.8c0-1.8-1.5-3.3-3.3-3.3c0,0,0,0,0,0h-5.9v6.7h5.9C86.2,353.2,87.7,351.7,87.7,349.8&#xA;&#x9;&#x9;C87.7,349.8,87.7,349.8,87.7,349.8 M89.7,349.8c0,3-2.4,5.3-5.3,5.3h-5.9v8.7h-2v-19.4h8C87.4,344.5,89.7,346.9,89.7,349.8"></path>
&#x9;<polygon fill="#3C312E" points="91.9,344.5 104.7,344.5 104.7,346.5 94,346.5 94,353.2 101.8,353.2 101.8,355.2 94,355.2 94,361.9 &#xA;&#x9;&#x9;104.7,361.9 104.7,363.9 91.9,363.9 &#x9;"></polygon>
&#x9;<path fill="#3C312E" d="M108.9,353.2h5.6c1.8-0.1,3.2-1.7,3.1-3.5c-0.1-1.7-1.4-3.1-3.1-3.1h-5.6V353.2z M111.3,355.2l9.8,8.7h-3&#xA;&#x9;&#x9;l-9.2-8.2v8.2h-2v-19.5h7.7c3,0,5.4,2.4,5.4,5.4c0,3-2.4,5.4-5.4,5.4L111.3,355.2z"></path>
&#x9;<polygon fill="#3C312E" points="142,344.5 142,363.9 139.9,363.9 139.9,349.9 133.3,363.9 131.9,363.9 125.3,349.9 125.3,363.9 &#xA;&#x9;&#x9;123.3,363.9 123.3,344.5 125,344.5 132.6,360.7 140.2,344.5 &#x9;"></polygon>
&#x9;<path fill="#3C312E" d="M157,355.9l-3.6-8.1l-3.6,8.1H157z M154.2,344.4l8.5,19.5h-2.2l-2.6-6H149l-2.6,6h-2.2l8.5-19.5H154.2z"></path>
&#x9;<g>
&#x9;&#x9;<defs>
&#x9;&#x9;&#x9;<rect id="SVGID_00000121988242878886644530000018130750891434112909_" x="-110" y="-256.4" width="1115" height="791.3"></rect>
&#x9;&#x9;</defs>
&#x9;&#x9;<clipPath id="SVGID_00000023990940860384378450000010188888223667760033_">
&#x9;&#x9;&#x9;<use xlink:href="#SVGID_00000121988242878886644530000018130750891434112909_" style="overflow:visible;"></use>
&#x9;&#x9;</clipPath>
&#x9;&#x9;<g style="clip-path:url(#SVGID_00000023990940860384378450000010188888223667760033_);">
&#x9;&#x9;&#x9;<path fill="#3C312E" d="M166.9,353.2h5.6c1.8-0.1,3.2-1.7,3.1-3.5c-0.1-1.7-1.4-3.1-3.1-3.1h-5.6V353.2z M169.4,355.2l9.8,8.7h-3&#xA;&#x9;&#x9;&#x9;&#x9;l-9.2-8.2v8.2h-2v-19.5h7.7c3,0,5.4,2.4,5.4,5.4c0,3-2.4,5.4-5.4,5.4L169.4,355.2z"></path>
&#x9;&#x9;&#x9;<path fill="#3C312E" d="M197.8,356.7c-1.4,5.2-6.7,8.3-11.8,6.9c-5.2-1.4-8.2-6.7-6.8-11.9c1.4-5.2,6.7-8.3,11.8-6.9&#xA;&#x9;&#x9;&#x9;&#x9;c3.5,0.9,6.1,3.7,6.9,7.2h-2.1c-1.2-4.1-5.5-6.5-9.6-5.3s-6.5,5.5-5.3,9.7c1.2,4.1,5.5,6.5,9.6,5.3c2.4-0.7,4.4-2.6,5.2-5H197.8z&#xA;&#x9;&#x9;&#x9;&#x9;"></path>
&#x9;&#x9;</g>
&#x9;</g>
&#x9;<polygon fill="#3C312E" points="213.6,344.5 215.6,344.5 215.6,363.9 213.6,363.9 213.6,355.2 202,355.2 202,363.9 200,363.9 &#xA;&#x9;&#x9;200,344.5 202,344.5 202,353.2 213.6,353.2 &#x9;"></polygon>
&#x9;<path fill="#3C312E" d="M227.1,340.8l-2.7,2.3h-1.5l2.3-2.3L227.1,340.8z M217.8,344.5h12.8v2h-10.7v6.7h7.8v2h-7.8v6.7h10.7v2h-12.8&#xA;&#x9;&#x9;L217.8,344.5z"></path>
&#x9;<g>
&#x9;&#x9;<defs>
&#x9;&#x9;&#x9;<rect id="SVGID_00000169533870250054076920000003975173534880804248_" x="-110" y="-256.4" width="1115" height="791.3"></rect>
&#x9;&#x9;</defs>
&#x9;&#x9;<clipPath id="SVGID_00000021109232776882519390000003921037231517686709_">
&#x9;&#x9;&#x9;<use xlink:href="#SVGID_00000169533870250054076920000003975173534880804248_" style="overflow:visible;"></use>
&#x9;&#x9;</clipPath>
&#x9;&#x9;<g style="clip-path:url(#SVGID_00000021109232776882519390000003921037231517686709_);">
&#x9;&#x9;&#x9;<path fill="#3C312E" d="M255.4,354.2c0-4.2-3.4-7.7-7.7-7.7h-4.2v15.4h4.2C252,361.9,255.4,358.5,255.4,354.2L255.4,354.2&#xA;&#x9;&#x9;&#x9;&#x9; M257.4,354.2c0,5.4-4.3,9.7-9.7,9.7l0,0h-6.2v-19.5h6.2C253.1,344.5,257.4,348.8,257.4,354.2"></path>
&#x9;&#x9;&#x9;<path fill="#3C312E" d="M276.8,354.2c0-4.2-3.4-7.6-7.6-7.6c-4.2,0-7.6,3.4-7.6,7.7c0,4.2,3.4,7.6,7.6,7.6&#xA;&#x9;&#x9;&#x9;&#x9;C273.4,361.8,276.8,358.4,276.8,354.2L276.8,354.2 M278.8,354.2c0,5.3-4.3,9.6-9.6,9.6c-5.3,0-9.6-4.3-9.6-9.6s4.3-9.6,9.6-9.6&#xA;&#x9;&#x9;&#x9;&#x9;C274.5,344.6,278.8,348.9,278.8,354.2"></path>
&#x9;&#x9;</g>
&#x9;</g>
&#x9;<polygon fill="#3C312E" points="294.7,344.5 296.8,344.5 296.8,363.9 295.1,363.9 283,348.3 283,363.9 280.9,363.9 280.9,344.5 &#xA;&#x9;&#x9;282.6,344.5 294.7,360.1 &#x9;"></polygon>
&#x9;<polygon fill="#3C312E" points="298.9,344.5 313.4,344.5 313.4,346.5 307.2,346.5 307.2,363.9 305.2,363.9 305.2,346.5 298.9,346.5 &#x9;&#xA;&#x9;&#x9;"></polygon>
&#x9;<polygon fill="#3C312E" points="325,344.5 339.5,344.5 339.5,346.5 333.2,346.5 333.2,363.9 331.2,363.9 331.2,346.5 325,346.5 &#x9;"></polygon>
&#x9;<g>
&#x9;&#x9;<defs>
&#x9;&#x9;&#x9;<rect id="SVGID_00000045600874359531842090000008325757311832453006_" x="-110" y="-256.4" width="1115" height="791.3"></rect>
&#x9;&#x9;</defs>
&#x9;&#x9;<clipPath id="SVGID_00000083062865803345491030000013655403891292347836_">
&#x9;&#x9;&#x9;<use xlink:href="#SVGID_00000045600874359531842090000008325757311832453006_" style="overflow:visible;"></use>
&#x9;&#x9;</clipPath>
&#x9;&#x9;<g style="clip-path:url(#SVGID_00000083062865803345491030000013655403891292347836_);">
&#x9;&#x9;&#x9;<path fill="#3C312E" d="M354.9,344.5h2v11.8c0,4.2-3.5,7.7-7.7,7.6c-3.9,0-7.2-3-7.6-6.9l0,0v-12.6h2v11.9c0.1,3.1,2.8,5.5,5.9,5.4&#xA;&#x9;&#x9;&#x9;&#x9;c2.9-0.1,5.2-2.5,5.4-5.4L354.9,344.5L354.9,344.5z"></path>
&#x9;&#x9;</g>
&#x9;</g>
&#x9;<polygon fill="#3C312E" points="368.5,344.5 381.2,344.5 381.2,346.5 370.5,346.5 370.5,353.2 378.3,353.2 378.3,355.2 370.5,355.2 &#xA;&#x9;&#x9;370.5,361.9 381.2,361.9 381.2,363.9 368.5,363.9 &#x9;"></polygon>
&#x9;<g>
&#x9;&#x9;<defs>
&#x9;&#x9;&#x9;<rect id="SVGID_00000085952054503052985940000005674271171548639109_" x="-110" y="-256.4" width="1115" height="791.3"></rect>
&#x9;&#x9;</defs>
&#x9;&#x9;<clipPath id="SVGID_00000025408964274301786710000011060930787217193092_">
&#x9;&#x9;&#x9;<use xlink:href="#SVGID_00000085952054503052985940000005674271171548639109_" style="overflow:visible;"></use>
&#x9;&#x9;</clipPath>
&#x9;&#x9;<g style="clip-path:url(#SVGID_00000025408964274301786710000011060930787217193092_);">
&#x9;&#x9;&#x9;<path fill="#3C312E" d="M396.8,358.6c0,3-2.8,5.3-6.3,5.3h-1.7c-3.4,0-6.3-2.4-6.3-5.3v-0.1v-0.8h2.1v0.9c-0.1,1.8,1.9,3.3,4.1,3.3&#xA;&#x9;&#x9;&#x9;&#x9;h1.7c2.3,0,4.2-1.5,4.2-3.3s-1.9-3.3-4.2-3.3h-0.8c-1.2,0-2.3-0.2-3.4-0.7c-2.1-1.3-3.2-2.8-3.2-4.7c0-2.9,2.8-5.3,6.3-5.3h0.5&#xA;&#x9;&#x9;&#x9;&#x9;c3.3,0,6.1,2.2,6.3,5.1l0.1,0.8h-2.1l-0.1-0.7c-0.1-1.8-2-3.1-4.2-3.1h-0.5c-2.3,0-4.1,1.5-4.1,3.3s1.7,3.3,3.9,3.4h1l0,0&#xA;&#x9;&#x9;&#x9;&#x9;c0.5,0,0.9,0,1.4,0.1h0.1C394.5,353.5,396.7,355.8,396.8,358.6"></path>
&#x9;&#x9;</g>
&#x9;</g>
&#x9;<rect x="2.6" y="395.3" fill="#3C312E" width="75.9" height="3.5"></rect>
&#x9;<rect x="318.9" y="395.3" fill="#3C312E" width="75.9" height="3.5"></rect>
&#x9;<rect x="-110" y="-256.4" fill="none" width="1115" height="791.3"></rect>
</g>
</svg>